<?xml version="1.0" encoding="UTF-8"?>
<svg id="Capa_2" data-name="Capa 2" xmlns="http://www.w3.org/2000/svg" viewBox="0 0 5858.09 3722.4">
  <defs>
    <style>
      .cls-1 {
        fill: #ddd;
      }

      .cls-2 {
        fill: #f0f0f0;
      }

      .cls-3 {
        fill: #dbdbdb;
      }

      .cls-4 {
        fill: #ecde6a;
      }

      .cls-5 {
        fill: #dedede;
      }

      .cls-6 {
        fill: #353736;
      }

      .cls-7 {
        fill: #e66465;
      }

      .cls-8 {
        fill: #3b3c3c;
      }

      .cls-9 {
        fill: #80ccc8;
      }

      .cls-10 {
        fill: #272727;
      }

      .cls-11 {
        fill: #3f403f;
      }

      .cls-12 {
        fill: #f1f1f1;
      }

      .cls-13 {
        fill: #f3f3f3;
      }

      .cls-14 {
        fill: #d9d8d8;
      }

      .cls-15 {
        fill: #f2f2f2;
      }

      .cls-16 {
        fill: #fefefe;
      }
    </style>
  </defs>
  <g id="Capa_1-2" data-name="Capa 1">
    <g>
      <path class="cls-13" d="M.63,3715.36C.63,2487.14,.72,1258.91,0,30.69-.01,5.64,5.65,0,30.71,0,1970.83,.68,3910.94,.62,5851.05,.62c2.23,2.23,4.46,4.45,6.69,6.68V3715.36c-2.23,2.23-4.46,4.45-6.69,6.68H7.31c-2.23-2.23-4.46-4.45-6.69-6.68ZM3771.99,1577.24l-.16-.31c-6.45-18.37-16.33-15.86-27.67-4.56-120.23,.77-240.47,1.63-360.7,2.27-45.68,.24-91.38,.55-137.05-.34-16.85-.33-20.29,7.05-20.77,22-.55,17.18,9.2,16.86,21.22,16.81,170.43-.68,340.86-1.17,511.29-1.72,2.29-.12,4.58-.25,6.88-.37,12.45-2.82,3.73-14.38,8.43-20.4,4.07-1.01,9.61-1.94,8.17-7.15-.76-2.76-6.27-4.21-9.63-6.25Zm-388.13-567.84c-2.26-.07-4.52-.14-6.77-.21-43.91-.55-87.82-.74-131.71-1.85-16.75-.42-22.29,5.91-17.11,21.72,.06,2.24,.11,4.48,.17,6.72-.22,15.12,11.38,9.69,18.48,9.77,39.96,.43,79.94-.34,119.9,.3,34.25,.55,27.18-16.93,17.05-36.45Zm-6.95,987.96c-43.06-.59-86.14-.93-129.19-1.93-13.66-.32-23.38,.22-22.46,18.75,.8,16.05,6.77,20.72,22.16,20.39,39.79-.86,79.62-.57,119.42-.3,32.88,.22,28.83-16.24,17.13-36.57-2.35-.12-4.71-.24-7.06-.35Zm768.82,797.11c.2-70.97,.4-141.94,.6-212.91,17.34-8.48,50.35,17.2,50.26-29.61-1.13-560.97-.9-1121.94-.19-1682.92,.03-24.69-8.61-28.89-30.66-28.64-71.23,.8-142.48-.56-213.72-1.08-17.74-16.5-35.48-16.52-53.22,.01-12.21,.51-24.41,1.47-36.62,1.48-251.78,.09-503.57,.45-755.35-.17-64.59-.16-116.44,24.5-158.68,72.06-4.82,5.43-7.19,14.08-18.19,14.53-24.9-55.2-64.59-99.21-119.47-124.91-213.81-100.1-428.39-198.56-643.35-296.16-24.93-11.32-54.04-14.09-80.38,2.25-.08,2.24-.17,4.49-.25,6.73,0,97.95,0,195.91,0,293.86v6.8c1.84,21.76-8.43,27.3-29.47,27.13-118-.98-236.03,.67-354.01-1.25-31.17-.51-41.21,5.84-41.14,39.27,1.13,552.89,1.14,1105.78,0,1658.67-.07,34.63,8.66,48.97,43.42,42.82,.19,70.43,.38,140.85,.57,211.28l.09-.19c-1.66,3-3.33,5.99-4.99,8.99-2.57,23.74,5.94,32.63,31.77,32.2,96.87-1.62,193.79-.64,290.69-.65,200.48-.02,400.96-.02,601.44-.08,20.02,0,39.78,1.21,53.94-18.55,22.21-30.98,53.56-30.38,77.03,.47,9.93,13.05,23.36,15.44,38.48,15.4,84.65-.2,169.29-.41,253.94,.07,18.96,.11,35.15-5.56,48.91-17.7,30.17-26.6,61.51-33.93,90.47-8.41,33.16,29.22,69.11,29.58,108.03,28.93,47.88-.8,95.89-2.19,143.64,.46,32.68,1.81,45.83-7.91,37.68-40.69-.03-76.29-.06-152.57-.09-228.86,3-24.25-14.45-19.45-28.07-19.46-113.21-.1-226.46,1.53-339.63-.8-52.64-1.08-98.32,11.86-139,44.37-.5-16.67-1.43-33.34-1.43-50-.08-505.23-.02-1010.45-.3-1515.68,0-13.81,5.4-29.24-7.25-41.08,9.05-45.91,37.91-73.71,80.88-88.95,21.32-7.56,43.31-9.48,65.64-9.48,335.91-.02,671.83-.04,1007.74,.05,7.7,0,15.41,1.26,23.11,1.94,2.48,6.08,5.2,6.8,8.24,.37,7.74-.14,6.37,7.83,10.07,11.29l1.4,1.93c-7.27,11.28-3.72,23.87-3.73,35.78-.2,515.5-.19,1031.01-.08,1546.51,0,12.14,1.49,24.27,2.29,36.41-.5,7.21-.99,14.41-1.49,21.62-17.16,5.83-35.19,4.49-52.24,2.46-29.02-3.46-41.09,6.55-36.46,35.61,.41,72.58,.81,145.17,1.22,217.75,.91,12.51-8.19,31.9,5.81,35.86,22.69,6.41,49.08,8.35,71.1-1.05,11.17-4.77,6.67-23.52,1.01-36.05Zm-168.42-282.13c.74-2.15,1.47-4.3,2.21-6.45,2.82-26.6,2.85-53.2,.01-79.8,.53-4.35,1.07-8.7,1.6-13.06,33.85-49.53,66.87-99.65,101.89-148.33,17.19-23.9,24.31-49.23,24.14-77.98-.39-64.57-.06-129.15-.05-193.73,0-40.84-58.47-102.94-99.04-102.42-22.4,.29-28.4-7.41-28.02-28.93,1.19-67.9,.65-135.83,.37-203.74-.22-52.66-30.43-82.31-83.15-82.44-48.59-.11-78.08,31-78.57,83.65-.38,41.19-.41,82.39,.08,123.58,.18,15.35,.33,25.99-21.2,19.27-28.01-8.74-55.04-3.74-79.17,14.19-5.63,4.19-9.87,9.28-19.96,3.52-57.61-32.89-82.38-27.52-125.14,25.28-13.04-17.5-30.84-24.42-52.25-24.1-50.85,.75-83.12,36.74-83.52,96.21-.64,95.75,.5,191.51-.59,287.25-.32,28.67,4.98,54.46,18.4,79.85,38.45,72.75,76.83,145.84,63.62,232.81-.45,229.05-.66,458.1-1.68,687.14-.12,26.91,16.82,23.58,33.48,23.58,145.78,0,291.56-.67,437.33,.55,29.72,.25,38.39-10.14,37.99-38.81-1.35-96.72-.52-193.48-.51-290.22,0-115.65-.51-231.3,.47-346.93,.2-23.47-4.7-36.61-31.05-33.21-6.48,.84-13.28-.85-19.93-1.38,1.02-1.67,1.77-3.46,2.24-5.36Zm-880.92-802.05c0-118,0-235.99,0-353.99,0-133.58,.07-267.16-.06-400.74-.03-34.58-4.09-37.14-35.96-24.56-38.63,15.25-64.43,53.37-64.43,95.55-.01,470.87,0,941.74,0,1412.6,0,62.26,.05,59.87,58.97,61.13,35.79,.76,42.2-13.48,42.07-45.29-1.06-248.23-.58-496.47-.59-744.7Zm506.73-412.19c116.94,0,233.88-.02,350.82,.03,13.32,0,26.5,3.12,26.04-18.88-.42-19.99-10.71-20.52-25.61-20.5-233.88,.25-467.76,.24-701.64,.08-15.45-.01-28.23-.96-27.81,21.57,.42,22.59,14.87,17.67,27.38,17.68,116.94,.12,233.88,.07,350.82,.02Zm-1.78-87.66c115.78,0,231.57,.22,347.35-.33,12.03-.06,29.99,8.94,31.05-16.94,1.05-25.61-14.77-22-30.39-22-231.57,.07-463.14,.03-694.71,.07-13.97,0-29.24-4.34-29.63,19.57-.39,24.35,15.17,19.57,28.97,19.58,115.78,.07,231.57,.04,347.36,.04Zm3.29,172.58c115.76,0,231.52-.11,347.27,.14,15.54,.03,28.11,.89,27.65-21.66-.46-22.55-14.83-17.82-27.32-17.83-232.63-.12-465.26-.13-697.89-.03-13.55,0-29.48-5.2-29.38,19.32,.1,23.59,14.71,20.08,29.04,20.08,116.87-.04,233.74-.02,350.61-.01Zm-110.5,142.32c83.53,0,167.05,.06,250.58-.06,13.61-.02,28.82,4.97,27.98-19.85-.81-24.27-15.9-19.5-29.57-19.51-163.71-.11-327.42-.09-491.14,.02-13.93,0-28.93-3.87-29.91,19.78-1.03,24.86,14.71,19.49,28.15,19.52,81.3,.14,162.6,.07,243.9,.1Zm-645.15,1460.8c-.14-52.09-34.57-86.08-86.96-85.86-50.08,.21-84.85,37.28-87.2,87.5-2.17,46.33,40.24,86.88,88.83,86.42,51.42-.49,85.48-35.22,85.34-88.06ZM4026.45,712.69c.24-53.31-36.18-89.03-90.08-88.35-42.57,.53-82.03,42.29-83.34,88.16-1.22,42.71,43.89,87.69,88.35,88.1,46.45,.42,84.85-39.26,85.07-87.91Zm-528.78,983.09c81.3,0,162.59,.14,243.89-.13,14.31-.05,31.9,6.19,31.16-20.81-.7-25.51-17.6-18.07-30.24-18.1-162.59-.33-325.19-.28-487.78-.13-13.43,.01-29.54-5.61-29.82,19.03-.27,23.95,14.74,20.2,28.9,20.21,81.3,.04,162.59,.02,243.89-.08Zm-145.6,1446.98c4.7-16.56-5.52-20.89-20.17-18.8-29.25,4.19-43.91-5.25-38.44-37.05,2.99-17.41-2.89-26.18-23.12-26.02-19.41,.15-22.97,9.49-20.6,24.74,4.54,29.24-4.93,43.13-36.76,38.53-13.19-1.91-28.53-4.87-28.86,19.51-.34,25.01,13.9,24.24,29.82,22.32,25.65-3.1,40.09,2.88,35.83,33.02-1.93,13.69-6.8,30.96,20.15,31.08,26.96,.12,25.73-15.57,23.43-32.32-3.68-26.81,7.01-35.91,32.96-32.12,15.29,2.23,30.45,1.43,25.75-22.91Zm81.25-2517.61c-3.91,20.91,8.43,24.79,25.45,22.59,27.72-3.58,44.89,2.56,39.01,36.14-2.41,13.79-3.95,28.31,19.93,28.33,22.34,.03,27.31-9.35,24.39-28.05-4.32-27.65,3.71-42.69,35.05-36.95,15.78,2.89,24.03-2.13,24.22-21.1,.2-19.22-8.31-23.92-24-21.17-30.57,5.36-39.89-8.14-35.2-36.55,2.91-17.61-3.13-26.13-23.33-25.89-18.49,.21-24.35,7.42-21.31,23.8,6.03,32.48-7.19,44.09-39.14,39.15-13.34-2.06-28.6-2.4-25.07,19.7Zm-125.22,1574.61c21.13,0,42.28-.64,63.37,.23,13.82,.57,19.78-3.22,20.01-18.33,.24-15.96-5.03-21.55-20.97-21.24-41.12,.8-82.28,.86-123.41,.11-15.22-.28-22.13,3.44-22.04,20.26,.09,17.54,8.63,19.85,23,19.24,19.98-.85,40.02-.21,60.03-.27Zm-.33-254.4c21.14,0,42.3-.56,63.41,.2,13.6,.49,20.13-3.01,20.24-18.3,.11-15.44-4.12-21.98-20.6-21.64-41.15,.84-82.33,.7-123.48,0-14.96-.25-22.26,3.23-22.27,20.19,0,17.32,7.98,20.4,22.63,19.8,19.99-.81,40.04-.2,60.07-.26Zm-.35,297.07c-21.02,0-42.07,.76-63.04-.26-14.92-.73-19.08,5.32-18.91,19.35,.17,13.97,4.65,19.62,19.33,19.35,42.02-.76,84.07-.62,126.1-.15,13.05,.14,20.12-2.14,20.4-17.82,.29-16.17-5.22-21.42-20.84-20.72-20.98,.94-42.03,.23-63.04,.25Zm-1.51,128.12c21.17,0,42.36-.66,63.49,.22,15.16,.63,21.68-3.57,22.08-20.32,.43-17.83-7.71-19.6-22.04-19.38-40.09,.64-80.2,.27-120.31,.15-12.38-.04-24.29-2.33-24.02,17.5,.25,18.03,7.04,23.18,24.01,22.07,18.86-1.24,37.86-.28,56.79-.23Zm3.69-505.72c21.15,0,42.34-.74,63.44,.24,15.54,.72,18.2-6.64,18.31-20.08,.11-13.92-3.7-20.18-18.71-19.94-42.29,.66-84.61,.59-126.91,.03-13.68-.18-20.45,3.61-20.64,18.57-.2,15.4,4.54,22.37,21.07,21.48,21.09-1.13,42.29-.28,63.44-.3Zm-1157.48,1262.39c19.95-.96,15.56-19.12,18.3-29.98,3.29-13.05-8.44-15.88-19.21-16.3-16.67-.65-24.56,7.42-24.15,24.11,.4,16.24,12.38,19.05,25.05,22.17Zm-132.55-178.21c-.85-9.48-2.01-22.74-18.02-18.34-10.03,2.75-27.85-2.02-27.58,16.77,.21,14.07,5.31,26.34,23.21,26.14,15.04-.16,22.47-7.56,22.38-24.57Zm85.8,9.01c-8.31-10.46-19.2-18.01-33.13-16.68-16.31,1.55-16.92,17.74-16.99,28.15-.1,14.13,15.89,15.68,25.31,14.79,12.25-1.16,20.14-11.99,24.81-26.26Zm-206.7,162.73c-5.4,9.21-26.23,.8-23.98,19.88,1.38,11.68,6.6,25.83,21.52,25.52,11.59-.24,27-4.6,26.72-19.16-.21-11.05-8.33-22.32-24.25-26.24Zm214.18,34.1c-12.95,1.06-23.28,7.5-23.28,19.64,0,12.03,6.03,25.55,21.17,25.1,13.15-.39,23.87-11.35,26.07-22.69,3.12-16.09-14.11-16.56-23.95-22.05Zm-189.17-192.42c-10.69,8.14-24.05,14.66-22.78,29.79,.98,11.63,10.17,20.73,22.02,20.27,13.09-.51,23.31-9.83,21.78-23.47-1.29-11.44-8.74-21.63-21.01-26.59Zm33.46,218.99c-12.33,2.09-21.91,9.06-22.68,21.02-1.11,17.42,14.27,22.34,26.99,23.27,14.19,1.04,16.72-12.73,17.49-23.71,1.03-14.65-11.11-17.25-21.8-20.58Zm201.68-157.98c-7.5-7.61-5.9-25.67-19.68-26.12-11.57-.37-22.81,11.14-22.98,23.64-.15,11.65,5.91,25,20.83,24.93,11.8-.05,19.54-8.41,21.83-22.45Zm-99.26,193.68c-3.26-8.45-4.23-21.53-20.33-22.54-11.42-.72-19.03,2.83-19.37,16.03-.35,13.33,1.11,24.42,18.58,23.61,10.05-.47,20.46,.11,21.12-17.09Zm-193.25-153.03c-.56,16.64,10.87,16.57,22.49,16.63,12.69,.06,17.66-6.38,17.18-18.59-.56-14.25-10.63-19.3-21.88-20.1-14.73-1.05-17.51,10.26-17.79,22.06Z"/>
      <path class="cls-16" d="M5857.74,7.3c-2.23-2.23-4.46-4.45-6.69-6.68,5.76-1.3,7.98,.93,6.69,6.68Z"/>
      <path class="cls-16" d="M.63,3715.36c2.23,2.23,4.46,4.45,6.69,6.68-5.76,1.3-7.98-.93-6.69-6.68Z"/>
      <path class="cls-16" d="M5851.05,3722.04c2.23-2.23,4.46-4.45,6.69-6.68,1.3,5.75-.93,7.98-6.69,6.68Z"/>
      <path class="cls-8" d="M4156.78,2518.28c-.8-12.14-2.29-24.27-2.29-36.41-.12-515.5-.13-1031.01,.08-1546.51,0-11.92-3.54-24.51,3.74-35.8,.89-1.53,1.77-3.05,2.65-4.57-1.35,.88-2.71,1.77-4.06,2.65-3.7-3.46-2.33-11.43-10.07-11.29-2.75-.12-5.49-.25-8.24-.38-7.7-.67-15.41-1.93-23.11-1.94-335.91-.09-671.83-.07-1007.74-.05-22.33,0-44.32,1.92-65.64,9.48-42.97,15.24-71.83,43.04-80.88,88.95-6.1,12.68-3.68,26.26-3.69,39.43-.14,514.29-.13,1028.58-.11,1542.88,0,8.88-1.59,18.46,1.2,26.44,2.53,7.23,8.47,4.05,11.57-1.99,40.68-32.5,86.36-45.45,139-44.37,113.17,2.33,226.41,.7,339.63,.8,13.62,.01,31.06-4.79,28.07,19.46-130.31,.36-260.64,2.06-390.93,.43-54.45-.68-91.42,22.73-117.46,67.42-8.91,15.29-15.3,32.06-22.48,48.32-2.73,6.19-4.65,13.61-12.86,13.03-8.82-.62-7.64-9.1-9.65-15.16-19.06-57.65-82.44-106.26-143.54-106.63-348.65-2.12-697.3-3.42-1045.96-5.19-12.8-.07-24.86-.8-28.73,15.13-34.76,6.15-43.49-8.19-43.42-42.82,1.14-552.89,1.13-1105.78,0-1658.67-.07-33.43,9.97-39.78,41.14-39.27,117.98,1.92,236.01,.28,354.01,1.25,21.04,.17,31.31-5.37,29.46-27.13,4.66-2.26,4.68-4.53,0-6.8,0-97.95,0-195.91,0-293.86,4.46-2.08,4.74-4.32,.25-6.73,26.34-16.34,55.45-13.57,80.38-2.25,214.96,97.6,429.55,196.06,643.35,296.16,54.88,25.69,94.57,69.71,119.47,124.91,11-.45,13.37-9.1,18.19-14.53,42.24-47.57,94.09-72.22,158.68-72.06,251.78,.62,503.57,.26,755.35,.17,12.21,0,24.41-.96,36.62-1.48,13.43,0,26.86,.02,40.29,.02l3.03,1.09,3.02-1.11c2.29,0,4.58-.01,6.88-.02,71.24,.53,142.49,1.88,213.72,1.08,22.06-.25,30.7,3.95,30.66,28.64-.71,560.97-.94,1121.95,.19,1682.92,.09,46.81-32.92,21.13-50.26,29.61-26.58-1.2-53.16-2.4-79.74-3.6-4.63-29.06,7.44-39.07,36.46-35.61,17.04,2.03,35.08,3.37,52.24-2.46,14.18-6.27,13.69-13.54,1.49-21.62Zm-2454.01-.79c-13.31,9.73-14.2,17.34,3.71,21.75,35.3-.39,70.61-.78,105.91-1.17,5.54,.33,11.07,.96,16.61,.96,307,.04,613.99,.02,920.99,.01,6.14,0,12.29,0,18.43,0-7.99-9.55-17.3-14.57-26.89-18.98-208.66-96.14-417.39-192.12-625.91-288.54-10.27-4.75-24.69-4.81-28.45-19.53,.82-.67,2.44-1.68,2.32-1.96-.67-1.62-1.76-3.07-2.7-4.58-.49-14.4-1.41-28.8-1.42-43.2-.08-363.26-.04-726.52-.12-1089.79,0-14.4-.95-28.8-1.45-43.2,.38-38.89-.71-77.86,1.65-116.63,1.51-24.69-8.36-29.49-30.57-29.28-103.47,.98-206.97,1.77-310.41-.22-31.97-.61-40.39,8.13-40.33,40.32,1.06,518.1,.76,1036.2,.66,1554.3,0,13.25-1.33,26.5-2.04,39.76Zm1202.89,67.01c1.59,.87,3.18,1.74,4.76,2.62-1.01-1.53-2.02-3.05-3.03-4.58-3.9-1.62-4.2-4.31-2.28-7.67,14.94-8.61,10.53-23.27,10.6-36,.34-66.76,.16-133.51,.16-200.27,0-439.48,.08-878.97-.39-1318.45-.01-12.67,8.75-30.05-11.59-37.19-29.33-73.94-66.79-99.21-147-99.21-197.24,0-394.49,.6-591.72-.65-28.84-.18-37.54,6.38-37.46,36.62,1.08,410.89,.99,821.78,.06,1232.67-.06,26.32,8.01,39.08,31.79,50,199,91.42,397.16,184.68,596.06,276.33,50.42,23.23,95.07,53.07,130.96,95.5,5.15,6.09,9.67,12.45,19.09,10.27Zm-133.14-1741.99c.45-2.44,.9-4.89,1.36-7.33-13.97-6.67-27.86-13.49-41.91-19.99-186.95-86.52-373.88-173.1-560.93-259.41-38.99-17.99-42.87-15.08-42.86,28.11,.03,74.58,1.19,149.18-.62,223.72-.67,27.36,6.55,35.79,34.89,35.59,186.02-1.28,372.05-.68,558.07-.69,17.33,0,34.67,0,52,0Z"/>
      <path class="cls-14" d="M1705.3,2582.42c3.87-15.92,15.93-15.19,28.73-15.13,348.65,1.77,697.31,3.08,1045.96,5.19,61.1,.37,124.48,48.98,143.54,106.63,2,6.06,.82,14.54,9.65,15.16,8.21,.57,10.13-6.84,12.86-13.03,7.18-16.26,13.57-33.03,22.48-48.32,26.04-44.69,63.01-68.1,117.46-67.42,130.29,1.63,260.61-.07,390.93-.43,.03,76.29,.06,152.57,.09,228.86-71.2-.17-142.41-.24-213.62-.64-10.81-.06-23.94,3.59-31.25-6.99-35.08-50.69-88.09-37.5-136.91-39.54-11.71-.49-18.92,3.46-19.49,16.71-1.06,24.82-19.45,26.72-37.99,26.62-65.48-.36-131,.02-196.4-2.44-23.52-.89-59.52,17.18-62.6-29.74-.09-1.38-3.2-2.77-5.1-3.8-19.51-10.54-112.59,.71-127.23,18.4-15.58,18.83-33.85,21.05-55.96,21.02-294.85-.32-589.71,0-884.56,.15-.19-70.43-.38-140.85-.57-211.28Z"/>
      <path class="cls-5" d="M3975.08,2517.7c6.65,.53,13.46,2.22,19.93,1.38,26.35-3.4,31.25,9.74,31.05,33.21-.98,115.64-.47,231.29-.47,346.93,0,96.74-.84,193.5,.51,290.22,.4,28.67-8.28,39.06-37.99,38.81-145.77-1.22-291.55-.55-437.33-.55-16.65,0-33.6,3.33-33.48-23.58,1.02-229.05,1.23-458.09,1.68-687.14,12.38,.68,24.76,1.36,37.14,2.04,129.21-.27,258.42-.53,387.64-.8,10.35-5.38,20.81-4.39,31.32-.51Zm-73.46,187.88c33.84,.19,61.46-27.93,60.83-61.94-.62-33.44-25.99-59.29-59.04-60.16-33.6-.88-62.44,26.48-63.28,60.03-.82,32.6,28.18,61.87,61.48,62.06Z"/>
      <path class="cls-3" d="M3096.4,1710.29c0,248.24-.47,496.47,.59,744.7,.14,31.81-6.28,46.05-42.07,45.29-58.92-1.26-58.97,1.13-58.97-61.13,0-470.87-.02-941.74,0-1412.6,0-42.18,25.8-80.29,64.43-95.55,31.87-12.58,35.93-10.02,35.96,24.56,.13,133.58,.06,267.16,.06,400.74,0,118,0,235.99,0,353.99Z"/>
      <path class="cls-8" d="M3975.08,2517.7c-10.51-3.88-20.97-4.87-31.34,.52-7.09-54.85-15.63-108.52,25.22-157.38,31.24-37.37,55.78-80.3,84.05-120.22,10.75-15.18,16.23-31.04,16.13-49.61-.33-62.26,.09-124.53-.18-186.79-.1-23.07-35.67-66.79-57.48-70.03-17.8-2.64-31.84-1.87-31.15,24.39,1.46,55.48-.53,111.05-1.11,166.58-.9,.62-2.64,1.44-2.55,1.81,.43,1.71,1.37,3.3,2.13,4.93-11.5,13.26-23.41,10.7-35.5,.91,5.12-3.05,5.37-5.42-.96-6.87-.63-12.14-1.8-24.28-1.81-36.42-.11-142.25,.06-284.5-.11-426.75-.04-33.96-14.64-49.82-44.15-49.59-27.72,.22-41.79,15.81-42.46,48.03-.81,38.84-1.15,77.69-1.69,116.54-10.48,11.2-10.51,22.39,.01,33.57,.53,59.99,.93,119.98,1.7,179.96,.16,12.51-1.04,21.02-17.5,20.7-16.05-.31-21.42-6.32-21.1-21.85,.7-34.45,.33-68.93,.12-103.39-.17-28.4-14.54-43-43.17-43.64-29.3-.66-42.95,13.96-42.91,42.68,.06,34.47-.78,68.95,.22,103.39,.53,18.07-4.18,25.89-24.13,25.41-18.57-.45-22.1-8.15-21.65-24.38,.92-33.33-.2-66.71,.4-100.06,.47-25.72-7.64-44.08-36.24-45.8-26.87-1.62-43.73,15.85-44.28,46.1-.6,33.34-.81,66.73,.21,100.05,.52,17.09-7.37,20.26-22.17,20.31-15,.05-22.63-3.63-22.09-20.49,.95-29.98,.98-60.05-.06-90.03-.76-21.84-13.47-34.96-35.35-37.32-23.49-2.53-38.61,8.79-44.13,31.35-2.33,9.54-2.07,19.84-2.09,29.8-.16,61.15,3.73,122.59-.96,183.38-6.63,85.96,8.49,165.32,55.11,237.81,35.09,54.56,30.15,113.87,24.06,173.71-12.38-.68-24.76-1.36-37.14-2.04,13.21-86.97-25.17-160.06-63.62-232.81-13.42-25.39-18.72-51.18-18.4-79.85,1.09-95.74-.05-191.5,.59-287.25,.39-59.47,32.67-95.46,83.52-96.21,21.41-.32,39.21,6.6,52.25,24.1,42.76-52.8,67.52-58.17,125.14-25.28,10.09,5.76,14.32,.67,19.96-3.52,24.14-17.94,51.17-22.94,79.17-14.19,21.53,6.72,21.38-3.92,21.2-19.27-.49-41.19-.46-82.39-.08-123.58,.49-52.65,29.98-83.76,78.57-83.65,52.73,.12,82.94,29.78,83.15,82.44,.28,67.92,.82,135.85-.37,203.74-.38,21.52,5.62,29.22,28.02,28.93,40.57-.52,99.04,61.58,99.04,102.42,0,64.58-.34,129.15,.05,193.73,.17,28.75-6.95,54.09-24.14,77.98-35.02,48.68-68.05,98.81-101.89,148.33-8.36,3.4-9.66,7.65-1.6,13.06,2.83,26.6,2.81,53.2-.01,79.8-.95,.44-2.67,.81-2.72,1.34-.17,1.67,.29,3.4,.51,5.1-.47,1.9-1.21,3.69-2.24,5.36Z"/>
      <path class="cls-7" d="M1705.87,2793.7c294.85-.15,589.71-.47,884.56-.15,22.1,.02,40.37-2.2,55.96-21.02,14.64-17.69,107.72-28.94,127.23-18.4,1.9,1.02,5.01,2.42,5.1,3.8,3.08,46.92,39.08,28.85,62.6,29.74,65.41,2.46,130.93,2.07,196.4,2.44,18.54,.1,36.92-1.79,37.99-26.62,.57-13.26,7.78-17.2,19.49-16.71,48.82,2.04,101.84-11.15,136.91,39.54,7.32,10.58,20.44,6.92,31.25,6.99,71.2,.4,142.41,.47,213.62,.64,8.15,32.78-5,42.51-37.68,40.69-47.74-2.65-95.76-1.26-143.64-.46-38.92,.65-74.86,.29-108.03-28.93-28.96-25.51-60.29-18.19-90.47,8.41-13.77,12.14-29.95,17.81-48.91,17.7-84.64-.48-169.29-.27-253.94-.07-15.12,.04-28.55-2.36-38.48-15.4-23.47-30.84-54.83-31.45-77.03-.47-14.16,19.76-33.93,18.54-53.94,18.55-200.48,.06-400.96,.07-601.44,.08-96.9,0-193.81-.97-290.69,.65-25.83,.43-34.34-8.46-31.78-32.21,1.66-3,3.33-5.99,5-8.98l-.09,.19Z"/>
      <path class="cls-11" d="M3603.13,1298.12c-116.94,.02-233.88,.07-350.82-.05-12.5-.01-26.95,4.91-27.38-17.68-.42-22.53,12.36-21.58,27.81-21.57,233.88,.16,467.76,.16,701.64-.08,14.9-.02,25.19,.52,25.61,20.5,.46,22-12.71,18.89-26.04,18.88-116.94-.06-233.88-.03-350.82,0Z"/>
      <path class="cls-8" d="M3601.35,1210.44c-115.78,0-231.57,.03-347.36-.04-13.8,0-29.36,4.77-28.97-19.58,.38-23.91,15.66-19.57,29.63-19.57,231.57-.04,463.14,0,694.71-.07,15.62,0,31.44-3.61,30.39,22-1.06,25.88-19.02,16.88-31.05,16.94-115.78,.55-231.57,.33-347.35,.33Z"/>
      <path class="cls-8" d="M3604.64,1383.01c-116.87,0-233.74-.02-350.61,.02-14.34,0-28.95,3.52-29.04-20.08-.1-24.52,15.82-19.31,29.38-19.32,232.63-.1,465.26-.09,697.89,.03,12.49,0,26.85-4.72,27.32,17.83,.46,22.55-12.1,21.7-27.65,21.66-115.76-.25-231.52-.14-347.27-.14Z"/>
      <path class="cls-11" d="M3494.14,1525.33c-81.3-.01-162.6,.06-243.9-.09-13.44-.02-29.19,5.35-28.15-19.52,.98-23.65,15.98-19.77,29.91-19.78,163.71-.11,327.42-.13,491.14-.02,13.67,0,28.75-4.76,29.57,19.51,.83,24.82-14.38,19.83-27.98,19.85-83.53,.12-167.05,.06-250.58,.05Z"/>
      <path class="cls-14" d="M2970.19,2589.19c-3.1,6.03-9.04,9.22-11.57,1.99-2.79-7.98-1.2-17.56-1.2-26.44-.02-514.29-.04-1028.58,.11-1542.88,0-13.18-2.42-26.76,3.69-39.43,12.65,11.85,7.24,27.27,7.25,41.08,.28,505.23,.22,1010.45,.3,1515.68,0,16.67,.93,33.34,1.43,50Z"/>
      <path class="cls-6" d="M3758.14,1611.4c-170.43,.54-340.86,1.04-511.29,1.72-12.02,.05-21.77,.37-21.22-16.81,.48-14.95,3.92-22.33,20.77-22,45.67,.88,91.36,.58,137.05,.34,120.23-.64,240.47-1.5,360.7-2.27,9.22,1.52,18.45,3.04,27.67,4.56,0,0,.16,.31,.16,.31l1.46,13.39c-4.7,6.02,4.01,17.58-8.43,20.4-2.56-4.8-4.83-4.38-6.88,.37Z"/>
      <path class="cls-4" d="M2848.99,2986.14c.14,52.85-33.91,87.58-85.34,88.06-48.59,.46-91-40.09-88.83-86.42,2.35-50.23,37.12-87.29,87.2-87.5,52.39-.22,86.82,33.77,86.96,85.86Zm-86.13-42.87c-20.84-.41-40.41,21.03-40.69,44.03-.34,27.98,19.84,37.73,41.35,42.8,14.93,3.52,45.26-27.82,42.69-43.37-3.92-23.74-19.71-38.1-43.35-43.46Z"/>
      <path class="cls-9" d="M4026.45,712.69c-.22,48.65-38.62,88.33-85.07,87.91-44.46-.41-89.57-45.38-88.35-88.1,1.31-45.88,40.78-87.63,83.34-88.16,53.9-.68,90.32,35.04,90.08,88.35Zm-79.75-43.15c-26.98-.13-48.59,20.27-46.38,41.81,2.56,25.03,17.36,40.6,42.91,41.89,20.31,1.03,43.15-23.64,40.7-44.16-2.8-23.43-18.67-35.8-37.22-39.54Z"/>
      <path class="cls-11" d="M3497.67,1695.83c-81.3,.05-162.59,.07-243.89,.03-14.16,0-29.17,3.75-28.9-20.21,.28-24.64,16.38-19.02,29.82-19.03,162.59-.15,325.19-.2,487.78,.13,12.64,.03,29.54-7.41,30.24,18.1,.74,26.99-16.85,20.76-31.16,20.81-81.3,.27-162.59,.13-243.89,.18Zm262.64-25.07c-18.65,0-30.46,.11-42.27-.02-155.57-1.72-311.18,3.62-466.72-2.88-5.73-.24-11.55-2.07-12.53,5.68-.86,6.83,4.11,9.79,10.15,10.31,6.63,.57,13.32,.62,19.98,.63,152.34,.03,304.68,.11,457.02-.18,9.19-.02,19.87,4.06,34.36-13.53Z"/>
      <path class="cls-5" d="M4066.6,2577.97c26.58,1.2,53.16,2.4,79.74,3.6-.2,70.97-.4,141.94-.6,212.91-25.97,.41-51.95,.83-77.92,1.25-.41-72.58-.81-145.17-1.22-217.75Z"/>
      <path class="cls-6" d="M3352.07,3142.76c4.7,24.34-10.46,25.14-25.75,22.91-25.95-3.79-36.64,5.3-32.96,32.12,2.3,16.75,3.53,32.44-23.43,32.32-26.95-.12-22.08-17.4-20.15-31.08,4.26-30.14-10.18-36.12-35.83-33.02-15.92,1.92-30.17,2.69-29.82-22.32,.34-24.39,15.67-21.42,28.86-19.51,31.83,4.6,41.3-9.29,36.76-38.53-2.37-15.25,1.19-24.6,20.6-24.74,20.23-.15,26.11,8.62,23.12,26.02-5.47,31.8,9.19,41.24,38.44,37.05,14.64-2.1,24.87,2.23,20.17,18.8Z"/>
      <path class="cls-8" d="M3433.32,625.15c-3.53-22.09,11.73-21.76,25.07-19.7,31.95,4.94,45.17-6.67,39.14-39.15-3.04-16.38,2.82-23.59,21.31-23.8,20.2-.23,26.24,8.28,23.33,25.89-4.69,28.41,4.63,41.9,35.2,36.55,15.7-2.75,24.2,1.95,24,21.17-.19,18.97-8.43,23.99-24.22,21.1-31.34-5.74-39.37,9.3-35.05,36.95,2.92,18.7-2.06,28.08-24.39,28.05-23.88-.03-22.34-14.54-19.93-28.33,5.87-33.58-11.29-39.72-39.01-36.14-17.02,2.2-29.36-1.68-25.45-22.59Z"/>
      <path class="cls-11" d="M3308.1,2199.79c-20.01,.03-40.05-.61-60.03,.24-14.37,.61-22.91-1.7-23-19.24-.09-16.82,6.82-20.54,22.04-20.26,41.12,.75,82.28,.69,123.41-.11,15.94-.31,21.21,5.28,20.97,21.24-.23,15.11-6.19,18.9-20.01,18.33-21.09-.87-42.24-.23-63.37-.2Z"/>
      <path class="cls-11" d="M3307.77,1945.39c-20.03,.03-40.08-.58-60.07,.23-14.65,.59-22.64-2.48-22.63-19.8,0-16.97,7.31-20.45,22.27-20.19,41.15,.69,82.34,.83,123.48,0,16.48-.34,20.71,6.2,20.6,21.64-.11,15.29-6.64,18.79-20.24,18.3-21.11-.76-42.27-.2-63.41-.17Z"/>
      <path class="cls-6" d="M3307.43,2242.42c21.02,0,42.07,.7,63.04-.24,15.62-.7,21.13,4.54,20.84,20.72-.28,15.68-7.35,17.97-20.4,17.82-42.03-.47-84.08-.61-126.1,.15-14.68,.27-19.16-5.38-19.33-19.35-.18-14.03,3.99-20.07,18.91-19.35,20.97,1.02,42.02,.26,63.04,.25Z"/>
      <path class="cls-8" d="M3305.92,2370.52c-18.94-.03-37.94-.98-56.79,.26-16.96,1.12-23.76-4.03-24.01-22.07-.27-19.83,11.64-17.54,24.02-17.5,40.1,.12,80.21,.49,120.31-.15,14.33-.23,22.47,1.55,22.04,19.38-.4,16.75-6.92,20.96-22.08,20.32-21.13-.88-42.32-.22-63.49-.25Z"/>
      <path class="cls-11" d="M3309.61,1864.84c-21.15,.01-42.35-.85-63.44,.29-16.53,.89-21.27-6.08-21.07-21.48,.19-14.96,6.96-18.75,20.64-18.57,42.3,.56,84.61,.63,126.91-.03,15.01-.23,18.82,6.02,18.71,19.94-.11,13.44-2.77,20.8-18.31,20.08-21.11-.98-42.29-.24-63.44-.23Z"/>
      <path class="cls-6" d="M3383.97,1997.71c11.7,20.32,15.75,36.79-17.13,36.57-39.81-.27-79.63-.56-119.42,.3-15.39,.33-21.37-4.34-22.16-20.39-.92-18.53,8.8-19.07,22.46-18.75,43.06,1,86.13,1.33,129.19,1.93,2.12,4.78,4.45,5.32,7.06,.35Z"/>
      <path class="cls-6" d="M3228.26,1029.06c-5.19-15.81,.36-22.14,17.11-21.72,43.89,1.1,87.81,1.29,131.71,1.85,2.12,4.49,4.38,4.69,6.77,.21,10.14,19.51,17.21,36.99-17.05,36.45-39.96-.64-79.94,.13-119.9-.3-7.1-.08-18.7,5.35-18.48-9.77,6.02-2.39,4.51-4.6-.17-6.72Z"/>
      <path class="cls-7" d="M4067.81,2795.72c25.98-.42,51.95-.83,77.92-1.25,5.66,12.53,10.16,31.28-1.01,36.05-22.02,9.4-48.41,7.47-71.1,1.05-14-3.96-4.91-23.34-5.81-35.86Z"/>
      <path class="cls-5" d="M2152.13,3127.21c-12.68-3.11-24.65-5.92-25.05-22.17-.42-16.7,7.47-24.77,24.15-24.11,10.77,.42,22.5,3.25,19.21,16.3-2.74,10.86,1.65,29.02-18.3,29.98Z"/>
      <path class="cls-1" d="M2019.58,2949c.09,17-7.35,24.4-22.38,24.57-17.9,.2-23-12.07-23.21-26.14-.27-18.79,17.55-14.02,27.58-16.77,16-4.39,17.17,8.86,18.02,18.34Z"/>
      <path class="cls-1" d="M2105.39,2958.01c-4.67,14.27-12.56,25.1-24.81,26.26-9.42,.89-25.41-.65-25.31-14.79,.07-10.42,.67-26.6,16.99-28.15,13.93-1.33,24.82,6.22,33.13,16.68Z"/>
      <path class="cls-5" d="M1898.69,3120.75c15.92,3.93,24.04,15.19,24.25,26.24,.28,14.56-15.12,18.92-26.72,19.16-14.91,.3-20.14-13.84-21.52-25.52-2.25-19.08,18.58-10.67,23.98-19.88Z"/>
      <path class="cls-1" d="M2112.86,3154.85c9.84,5.49,27.07,5.96,23.95,22.05-2.2,11.34-12.92,22.3-26.07,22.69-15.14,.45-21.17-13.07-21.17-25.1,0-12.13,10.33-18.57,23.28-19.64Z"/>
      <path class="cls-1" d="M1923.7,2962.43c12.27,4.95,19.73,15.14,21.01,26.59,1.54,13.64-8.69,22.96-21.78,23.47-11.85,.46-21.05-8.64-22.02-20.27-1.27-15.13,12.09-21.65,22.78-29.79Z"/>
      <path class="cls-1" d="M1957.15,3181.42c10.69,3.33,22.83,5.92,21.8,20.58-.77,10.98-3.3,24.75-17.49,23.71-12.72-.93-28.1-5.85-26.99-23.27,.76-11.96,10.35-18.93,22.68-21.02Z"/>
      <path class="cls-1" d="M2158.83,3023.44c-2.29,14.04-10.03,22.4-21.83,22.45-14.92,.07-20.98-13.27-20.83-24.93,.17-12.5,11.41-24.01,22.98-23.64,13.78,.45,12.18,18.5,19.68,26.12Z"/>
      <path class="cls-3" d="M2059.57,3217.12c-.66,17.2-11.07,16.63-21.12,17.09-17.47,.81-18.93-10.28-18.58-23.61,.34-13.2,7.95-16.74,19.37-16.03,16.1,1.01,17.07,14.09,20.33,22.54Z"/>
      <path class="cls-1" d="M1866.32,3064.09c.28-11.8,3.06-23.1,17.79-22.06,11.25,.8,21.32,5.85,21.88,20.1,.48,12.21-4.49,18.65-17.18,18.59-11.61-.06-23.05,.01-22.49-16.63Z"/>
      <path class="cls-16" d="M3952.03,839.32c-2.29,0-4.58,.01-6.88,.02-2.02,0-4.03,.01-6.05,.02-13.43,0-26.86-.02-40.29-.02,17.73-16.53,35.47-16.51,53.22-.01Z"/>
      <path class="cls-16" d="M3771.82,1576.93c-9.22-1.52-18.45-3.04-27.67-4.56,11.34-11.3,21.23-13.81,27.67,4.56Z"/>
      <path class="cls-10" d="M4156.78,2518.28c12.2,8.08,12.69,15.35-1.49,21.62,.5-7.21,.99-14.41,1.49-21.62Z"/>
      <path class="cls-16" d="M3773.45,1590.63c-.49-4.46-.97-8.93-1.46-13.39,3.36,2.04,8.87,3.49,9.63,6.25,1.44,5.21-4.1,6.13-8.17,7.15Z"/>
      <path class="cls-10" d="M3979.54,2426.09c-8.06-5.4-6.76-9.66,1.6-13.06-.53,4.35-1.07,8.7-1.6,13.06Z"/>
      <path class="cls-10" d="M2086.77,508.4c4.49,2.41,4.21,4.65-.25,6.73,.08-2.24,.17-4.49,.25-6.73Z"/>
      <path class="cls-10" d="M2086.51,808.99c4.67,2.27,4.65,4.54,0,6.8v-6.8Z"/>
      <path class="cls-10" d="M3977.32,2512.34c-.22-1.71-.68-3.44-.51-5.1,.05-.53,1.77-.9,2.72-1.34-.74,2.15-1.47,4.3-2.21,6.45Z"/>
      <path class="cls-14" d="M1705.96,2793.51c-1.67,2.99-3.34,5.98-5,8.98,1.67-2.99,3.34-5.98,5-8.98Z"/>
      <path class="cls-10" d="M3383.97,1997.71c-2.61,4.97-4.94,4.43-7.06-.35,2.35,.12,4.71,.24,7.06,.35Z"/>
      <path class="cls-16" d="M4138.58,885.98c2.75,.13,5.49,.26,8.24,.38-3.04,6.42-5.76,5.7-8.24-.38Z"/>
      <path class="cls-10" d="M3758.14,1611.4c2.04-4.75,4.32-5.17,6.88-.37-2.29,.12-4.58,.25-6.88,.37Z"/>
      <path class="cls-10" d="M3228.26,1029.06c4.68,2.12,6.19,4.33,.17,6.72-.06-2.24-.11-4.48-.17-6.72Z"/>
      <path class="cls-10" d="M3383.86,1009.4c-2.4,4.49-4.65,4.28-6.77-.21,2.26,.07,4.52,.14,6.77,.21Z"/>
      <path class="cls-15" d="M2905.1,2574.87c-1.92,3.35-1.62,6.05,2.28,7.67l-1.76,1.94c-9.39,2.2-13.91-4.16-19.06-10.25-35.88-42.44-80.54-72.27-130.96-95.5-198.9-91.65-397.06-184.91-596.06-276.33-23.78-10.93-31.85-23.69-31.79-50,.93-410.89,1.02-821.78-.06-1232.67-.08-30.24,8.62-36.8,37.46-36.62,197.24,1.25,394.48,.66,591.72,.65,80.21,0,117.67,25.27,147,99.21-.36,2.19-1.03,4.39-1.03,6.58,.11,517.38,.26,1034.77,.51,1552.15,0,11.06,1.15,22.12,1.76,33.18Zm-567.25-1022.81c49.87-.07,87.7-36.55,87.76-84.62,.06-47.22-41.05-88.64-86.99-87.65-47.95,1.03-85.97,40.37-85.47,88.43,.5,47.87,36.91,83.91,84.7,83.84Zm322.63,272.91c-15.06-1.13-18.64,7.38-18.86,20.36-.29,16.99,9.45,24.67,24.15,24.44,14.37-.22,15.52-12.5,16.11-24.07,.8-15.58-6.16-22.42-21.39-20.73Zm-68.75-140.17c-15.67-.72-21.1,9.54-22.08,20.82-1.26,14.37,8.73,23.49,21.93,24.07,12.08,.53,21.21-8.92,21.95-20.87,.89-14.41-10.31-20.67-21.8-24.02Zm32.86,260.11c11.47-3.49,22.29-9.79,22.57-23.47,.25-11.98-8.76-20.64-20.57-21.98-12.63-1.44-21.15,7.66-23.3,18.79-2.77,14.34,8.14,21.07,21.29,26.65Zm-191.18-188.77c12.72-3.18,22.79-11.89,24.88-23.19,2.2-11.88-8.61-20.64-20.19-20.81-13.04-.19-23.86,10.17-25.49,21.47-1.58,10.94,10.94,17.15,20.8,22.53Zm121.93,221.91c11.89,.27,20.72-3.19,18.59-16.59-1.96-12.35-6.57-23.27-22.42-23.15-15.51,.11-16.95,9.98-16.91,22.05,.05,14.82,8.42,18.71,20.73,17.7Zm-140.75-110.3c-8.08,6.55-28.17-1.93-24.97,18.03,1.59,9.92,5.57,24.14,19.2,22.94,10.99-.97,25.93-5.13,22.4-21.75-1.63-7.67-.66-21.73-16.62-19.21Zm258.46-99.5c-4.76-10.07-7.58-23.12-21.23-22.75-11.93,.33-22.25,8.41-20.89,20.99,1.09,10.09,5.54,24.04,19.89,21.91,9.97-1.48,22.26-5.46,22.23-20.16Zm-252.48,33.85c-2.49-11.7-12.99-16.65-25.87-16.8-14.69-.18-13.39,11.43-13.75,21.31-.46,12.33,5.24,18.23,17.8,17.9,12.94-.34,20.9-5.69,21.83-22.4Zm71.95,138.84c-1.1-10.67-10.95-13.54-20.55-15.32-14.46-2.68-20.8,7.46-22.43,18.93-2.16,15.26,11.19,17.63,21.78,19.63,16.14,3.03,16.26-11.26,21.2-23.24Zm25.27-263.69c-18.23,.63-29.91,.1-29.01,14.55,.64,10.38,1.48,24.4,17.15,22.53,10.08-1.2,22.39-3.52,22.07-19.29-.26-12.73-6.17-18-10.21-17.78Z"/>
      <path class="cls-1" d="M2087.17,2211.97c3.76,14.72,18.18,14.79,28.45,19.53,208.53,96.42,417.25,192.41,625.91,288.54,9.59,4.42,18.9,9.43,26.89,18.98-6.14,0-12.29,0-18.43,0-307,0-613.99,.02-920.99-.01-5.54,0-11.07-.62-16.61-.96,.12-439.66,.31-879.31,.28-1318.97,0-49.61,12.94-98.66,3.14-149.14-2.16-11.11-6.91-40.9,25.12-40.68,80.95,.57,161.9,.05,242.85-.04,.51,14.4,1.45,28.8,1.45,43.2,.08,363.26,.04,726.52,.12,1089.79,0,14.4,.92,28.8,1.42,43.2,.13,2.18,.26,4.36,.39,6.55Z"/>
      <path class="cls-13" d="M2083.79,1029.24c-80.95,.09-161.9,.61-242.85,.04-32.03-.23-27.28,29.57-25.12,40.68,9.8,50.48-3.14,99.52-3.14,149.14,.02,439.66-.16,879.31-.28,1318.97-35.3,.39-70.61,.78-105.91,1.17-1.24-7.25-2.48-14.5-3.71-21.75,.71-13.25,2.03-26.5,2.04-39.76,.11-518.1,.4-1036.2-.66-1554.3-.07-32.19,8.35-40.93,40.33-40.32,103.44,1.98,206.94,1.19,310.41,.22,22.21-.21,32.07,4.59,30.57,29.28-2.36,38.77-1.28,77.74-1.65,116.63Z"/>
      <path class="cls-2" d="M2772.51,842.51c-17.33,0-34.67,0-52,0-186.03,.01-372.06-.59-558.07,.69-28.34,.2-35.56-8.23-34.89-35.59,1.82-74.53,.65-149.14,.62-223.72-.01-43.19,3.86-46.1,42.86-28.11,187.05,86.31,373.98,172.88,560.93,259.41,14.04,6.5,27.94,13.32,41.91,19.99-.45,2.44-.9,4.89-1.36,7.33Z"/>
      <path class="cls-10" d="M2905.1,2574.87c-.61-11.06-1.75-22.12-1.76-33.18-.25-517.38-.39-1034.77-.51-1552.15,0-2.19,.67-4.39,1.03-6.58,20.34,7.14,11.58,24.52,11.59,37.19,.48,439.48,.4,878.97,.39,1318.45,0,66.76,.18,133.51-.16,200.27-.06,12.73,4.34,27.39-10.6,36Z"/>
      <path class="cls-10" d="M1702.77,2517.49c1.24,7.25,2.48,14.5,3.71,21.75-17.91-4.41-17.03-12.02-3.71-21.75Z"/>
      <path class="cls-13" d="M3939.1,839.35c2.02,0,4.03-.01,6.05-.02,0,0-3.02,1.1-3.02,1.1l-3.03-1.09Z"/>
      <path class="cls-10" d="M2907.39,2582.54c1.01,1.53,2.02,3.05,3.03,4.58-1.59-.87-3.18-1.74-4.78-2.63-.01,0,1.75-1.95,1.75-1.95Z"/>
      <path class="cls-10" d="M2087.17,2211.97c-.13-2.18-.26-4.36-.39-6.55,.95,1.51,2.03,2.96,2.7,4.58,.12,.29-1.5,1.29-2.32,1.96Z"/>
      <path class="cls-10" d="M4156.89,897.65c1.35-.88,2.71-1.77,4.06-2.65-.88,1.52-1.76,3.04-2.65,4.57-.01,.01-1.41-1.92-1.41-1.92Z"/>
      <path class="cls-12" d="M3943.3,2132.8c12.09,9.8,24,12.35,35.5-.91,.14-2.24,.28-4.49,.42-6.73,.57-55.53,2.56-111.1,1.11-166.58-.69-26.26,13.35-27.03,31.15-24.39,21.81,3.24,57.38,46.96,57.48,70.03,.27,62.26-.15,124.53,.18,186.79,.1,18.57-5.39,34.43-16.13,49.61-28.27,39.93-52.8,82.85-84.05,120.22-40.85,48.87-32.31,102.53-25.22,157.38-129.2,.26-258.41,.52-387.62,.79,6.09-59.84,11.02-119.15-24.06-173.71-46.62-72.49-61.74-151.85-55.11-237.81,4.69-60.79,.8-122.23,.96-183.38,.03-9.96-.24-20.26,2.09-29.8,5.52-22.56,20.64-33.88,44.13-31.35,21.88,2.36,34.59,15.49,35.35,37.32,1.04,29.98,1.01,60.05,.06,90.03-.54,16.86,7.09,20.54,22.09,20.49,14.79-.05,22.69-3.21,22.17-20.31-1.02-33.32-.81-66.71-.21-100.05,.55-30.25,17.41-47.72,44.28-46.1,28.6,1.72,36.71,20.08,36.24,45.8-.6,33.34,.51,66.73-.4,100.06-.45,16.22,3.08,23.93,21.65,24.38,19.96,.48,24.66-7.33,24.13-25.41-1.01-34.44-.17-68.92-.22-103.39-.05-28.72,13.61-43.34,42.91-42.68,28.63,.64,43,15.24,43.17,43.64,.21,34.47,.58,68.94-.12,103.39-.31,15.53,5.05,21.54,21.1,21.85,16.47,.32,17.66-8.19,17.5-20.7-.77-59.99-1.17-119.98-1.7-179.96,0-11.19,0-22.38-.01-33.57,.54-38.85,.88-77.7,1.69-116.54,.67-32.22,14.74-47.82,42.46-48.03,29.51-.23,44.11,15.63,44.15,49.59,.17,142.25,0,284.5,.11,426.75,0,12.14,1.18,24.28,1.81,36.42,.32,2.29,.64,4.58,.96,6.87Z"/>
      <path class="cls-8" d="M3901.62,2705.58c-33.3-.19-62.3-29.47-61.48-62.06,.84-33.55,29.67-60.91,63.28-60.03,33.05,.87,58.41,26.71,59.04,60.16,.63,34.01-26.99,62.13-60.83,61.94Zm-.23-91.1c-17.04,3.55-29.2,12.23-28.32,31,.87,18.55,12.86,28.29,30.68,27.51,16.59-.72,26.65-12.05,26.79-28.28,.16-18.16-11.69-27.52-29.16-30.23Z"/>
      <path class="cls-10" d="M3852.12,1777.74c0,11.19,0,22.38,.01,33.57-10.52-11.19-10.5-22.38-.01-33.57Z"/>
      <path class="cls-10" d="M3979.22,2125.16c-.14,2.24-.28,4.49-.42,6.73-.76-1.63-1.69-3.21-2.13-4.93-.09-.37,1.65-1.19,2.55-1.81Z"/>
      <path class="cls-10" d="M3943.3,2132.8c-.32-2.29-.64-4.58-.96-6.87,6.33,1.45,6.07,3.82,.96,6.87Z"/>
      <path class="cls-13" d="M2762.86,2943.27c23.64,5.35,39.43,19.72,43.35,43.46,2.57,15.55-27.76,46.89-42.69,43.37-21.51-5.07-41.68-14.82-41.35-42.8,.28-23,19.85-44.44,40.69-44.03Z"/>
      <path class="cls-13" d="M3946.7,669.55c18.55,3.74,34.42,16.11,37.22,39.54,2.45,20.52-20.38,45.19-40.7,44.16-25.55-1.29-40.34-16.86-42.91-41.89-2.21-21.54,19.41-41.94,46.38-41.81Z"/>
      <path class="cls-6" d="M3760.31,1670.76c-14.49,17.59-25.18,13.51-34.36,13.53-152.34,.29-304.68,.21-457.02,.18-6.66,0-13.35-.06-19.98-.63-6.05-.52-11.02-3.47-10.15-10.31,.98-7.74,6.8-5.92,12.53-5.68,155.54,6.5,311.15,1.16,466.72,2.88,11.81,.13,23.61,.02,42.27,.02Z"/>
      <path class="cls-7" d="M2337.85,1552.05c-47.79,.07-84.2-35.98-84.7-83.84-.5-48.07,37.52-87.41,85.47-88.43,45.94-.98,87.05,40.43,86.99,87.65-.06,48.07-37.89,84.55-87.76,84.62Zm-38.83-84.69c.06,21.86,18.08,41.21,38.6,41.44,21.44,.24,44.29-21.24,42.66-42.12-1.86-23.81-15.99-38.55-39.81-40.87-22.28-2.17-41.52,18.26-41.46,41.55Z"/>
      <path class="cls-1" d="M2660.48,1824.96c15.23-1.68,22.19,5.15,21.39,20.73-.59,11.57-1.74,23.85-16.11,24.07-14.69,.23-24.44-7.45-24.15-24.44,.22-12.98,3.8-21.5,18.86-20.36Z"/>
      <path class="cls-5" d="M2591.73,1684.79c11.49,3.35,22.69,9.61,21.8,24.02-.74,11.96-9.87,21.41-21.95,20.87-13.2-.58-23.19-9.71-21.93-24.07,.99-11.28,6.41-21.54,22.08-20.82Z"/>
      <path class="cls-5" d="M2624.59,1944.91c-13.16-5.58-24.07-12.31-21.29-26.65,2.16-11.14,10.67-20.23,23.3-18.79,11.8,1.34,20.82,10,20.57,21.98-.29,13.67-11.1,19.98-22.57,23.47Z"/>
      <path class="cls-1" d="M2433.41,1756.14c-9.86-5.39-22.38-11.59-20.8-22.53,1.63-11.3,12.45-21.66,25.49-21.47,11.57,.17,22.39,8.92,20.19,20.81-2.09,11.3-12.16,20.01-24.88,23.19Z"/>
      <path class="cls-5" d="M2555.34,1978.04c-12.32,1.01-20.69-2.88-20.73-17.7-.04-12.06,1.4-21.93,16.91-22.05,15.85-.11,20.47,10.8,22.42,23.15,2.12,13.41-6.71,16.86-18.59,16.59Z"/>
      <path class="cls-1" d="M2414.59,1867.74c15.96-2.52,14.99,11.54,16.62,19.21,3.53,16.63-11.41,20.79-22.4,21.75-13.63,1.2-17.61-13.02-19.2-22.94-3.2-19.95,16.89-11.48,24.97-18.03Z"/>
      <path class="cls-5" d="M2673.06,1768.24c.03,14.7-12.26,18.67-22.23,20.16-14.36,2.14-18.81-11.82-19.89-21.91-1.35-12.58,8.96-20.67,20.89-20.99,13.66-.37,16.47,12.68,21.23,22.75Z"/>
      <path class="cls-3" d="M2420.58,1802.08c-.92,16.71-8.89,22.06-21.83,22.4-12.55,.33-18.25-5.56-17.8-17.9,.36-9.89-.94-21.49,13.75-21.31,12.88,.16,23.38,5.1,25.87,16.8Z"/>
      <path class="cls-1" d="M2492.53,1940.93c-4.93,11.98-5.05,26.27-21.2,23.24-10.59-1.99-23.94-4.37-21.78-19.63,1.62-11.47,7.97-21.61,22.43-18.93,9.6,1.78,19.45,4.65,20.55,15.32Z"/>
      <path class="cls-1" d="M2517.8,1677.24c4.04-.21,9.95,5.05,10.21,17.78,.32,15.77-11.99,18.09-22.07,19.29-15.67,1.87-16.51-12.15-17.15-22.53-.9-14.45,10.79-13.92,29.01-14.55Z"/>
      <path class="cls-2" d="M3901.39,2614.48c17.46,2.72,29.32,12.08,29.16,30.23-.14,16.23-10.21,27.55-26.79,28.28-17.82,.78-29.82-8.96-30.68-27.51-.88-18.77,11.28-27.45,28.32-31Z"/>
      <path class="cls-13" d="M2299.02,1467.36c-.06-23.29,19.18-43.72,41.46-41.55,23.81,2.32,37.95,17.06,39.81,40.87,1.63,20.89-21.23,42.36-42.66,42.12-20.52-.23-38.54-19.58-38.6-41.44Z"/>
    </g>
  </g>
</svg>