<?xml version="1.0" encoding="UTF-8"?>
<svg id="Capa_2" data-name="Capa 2" xmlns="http://www.w3.org/2000/svg" viewBox="0 0 5882.4 2941.2">
  <defs>
    <style>
      .cls-1 {
        fill: #2545f2;
      }

      .cls-2 {
        fill: #2a48d5;
      }

      .cls-3 {
        fill: #8cd2dd;
      }

      .cls-4 {
        fill: #1e2ced;
      }

      .cls-5 {
        fill: #67b2fe;
      }

      .cls-6 {
        fill: #5baafe;
      }

      .cls-7 {
        fill: #49e871;
      }

      .cls-8 {
        fill: #1f2acc;
      }

      .cls-9 {
        fill: #f1f3f5;
      }

      .cls-10 {
        fill: #56db76;
      }

      .cls-11 {
        fill: #12af92;
      }

      .cls-12 {
        fill: #a8abb0;
      }

      .cls-13 {
        fill: #085e71;
      }

      .cls-14 {
        fill: #65bac0;
      }

      .cls-15 {
        fill: #d6dbe2;
      }

      .cls-16 {
        fill: #c6fcf3;
      }
    </style>
  </defs>
  <g id="Capa_1-2" data-name="Capa 1">
    <g>
      <path class="cls-6" d="M5882.04,4.61V2507.76c-206.82,0-413.65,.03-620.47,0-440.57-.05-881.15-.11-1321.72-.17-5.93-4.88-5.59-8.33,2.27-10.09-1.25-4.15-2.47-8.25-3.69-12.35,.72-1.95,1.44-3.91,2.16-5.86,5.5-6.96,4.01-15.05,3.69-22.93-4.25-106.28-10.55-212.45,.17-318.87,4.01-39.85,5.91-80.65-4.96-120.38,8.36-17.21,16.09-34.77,25.23-51.56,16.01-29.43,34.65-58.49,27.67-93.86-5.48-27.81-12-55.56-24.89-81.5-12.24-24.62-30.31-38.78-58-39.93-16.93-9.44-21.39-23.99-17.15-42.09,6.67-14.74,15.72-28.52,19.28-44.5,10.03-44.95-12.94-77.06-62.07-73-13.83,1.14-30.5,4.07-36.11,20.41-5.61,16.34,6.26,25.87,17.5,34.85,2.76,2.21,5.29,4.71,7.93,7.07,1.8,26.77-6.56,55.89,17.9,77.42,.8,18.78-15.45,19.79-26.25,20.67-24.13,1.95-37.05,22.56-41.86,44.09-6.17,27.6-9.76,55.69-20.09,82.44-4,10.36-10.12,16.46-17.9,23.51-16.11,14.59-37.37,22.26-51.27,39.46-6.38,5.7-12.45,10.86-22.02,11.95-6.04,.69-18.74,2.72-16.37,9.62,3.76,10.93-3.88,12.56-8.13,17.4-8.18,9.31-6.65,17.8,3.91,20.7,22.74,6.25,55.97-12.28,64.13-35.76,23.4-10.44,47.22-20.07,70.03-31.68,11.04-5.62,12.53-2.01,12.58,7.57,.08,17.68,.27,35.35,.42,53.02-23.19,87.44-42.56,175.68-41.22,266.66,.94,63.99,8.68,127.68,16.95,191.15,1.39,10.67-3.25,24,9.5,31.54-.45,5.35-.88,10.69-1.32,16.04-2.48,.58-4.95,1.17-7.43,1.75-12.89,5.99-25.57,13.38-40.44,5.94,.82-24.34-1.57-47.09-28.65-57.56-2.61-10.86-11.05-11.59-20.01-11.59-84.26-.01-168.52-.07-252.78-.07-8.86,0-17.44,.71-20.14,11.54-13.37,7.26-27.17,14.14-27.6,32.41-.2,8.43-.41,16.86-.62,25.29-15,.65-20.32,7.92-15.26,22.28-15.05-2.05-17.24-20.91-31.46-24.04,28.29-11.87,37.45-35.36,41.16-63.72,3.81-29.17,.84-58.4,3.37-87.49,13.6-8.48,29.5-10.19,44.32-15.07,6.86,2.58,13.73,5.17,20.59,7.75,1.59,.39,3.18,.79,4.77,1.18,14.95,10.07,18.62,8.75,21.63-7.84,7.64-6.24,3.96-21.62,18.22-22.51,5.68,.58,13.61-4.62,16.61,2.59,6.04,14.49,10.83,29.58,15.03,44.73,2.52,9.09-10.09,7.39-11.9,13.8-.62,2.18,.09,4.74,.19,7.13-13.88,18.44-13.07,21.06,10.15,32.59,1.77,1.91,3.54,3.82,5.31,5.72,17.68,12.75,34.67,12.83,55.95,5.13,26.92-9.74,54.08-19.87,82.57-25.91,13.65-2.89,33.09-7.81,26.89-31.08,2.85-2.91,7.22-4.79,6.78-9.95,12.88-20.65,9.97-27.73-12.97-31.52,.14-4.35,.16-10.48-5.3-9.65-17.11,2.59-18.22-10.56-21.68-20.88-15.86-47.28-30.48-94.99-47.45-141.86-5.83-16.09-8.99-29.06,6.01-40.82q8.1-31.65-11.98-35.37c-2.06-8.04-8.12-7.17-14.16-6.36-4.82-14.83-16.41-18.85-28.98-13.65-37.01,15.31-76,24.31-113.67,37.4-13.9,4.83-21.85,12.1-11.74,27.21-6.34,2.5-8.9,7.04-7.41,13.75-14.02,15.69-11.85,22.12,11.88,35.13,12.11,2.5,24.55,4.59,25.96,20.57-1.27,8.27,3.63,15.12,5.13,22.72,1.1,5.61,4.1,12.69-3.22,16.19-6.5,3.11-13.83,5.33-20.79,.64-3.41-2.3-4.91-7.06-9.7-7.69-15.09-9.38-19.66-7.66-24.18,9.09-6.76,8.37-13.52,16.75-20.28,25.12-7.72,3.46-15.54,6.34-24.23,4.35-10.45-5.97-17.4-16.13-27.88-22.47-5.43-3.29,2.99-3.15,4.66-5.01,30.39,1.37,32.69-.49,34.38-18.31,1.68-17.76-3.33-26.64-22.57-23.45-3.44,.57-7.17-.63-10.76-1.02-8.82-16.94-7.17-35.31-7.23-53.43-.1-34.11-.12-68.23-.17-102.34,4.96-14,5.17-33.23,29.41-25.4,3.92,1.27,7.86-2.07,10.72-5.36,.09-8.26-.19-16.56,.38-24.79,.7-10.04-3.7-14.2-13.46-13.29-7.97-4.46-16.7-2.94-25.15-2.97-81.27-.35-162.53-.56-243.8-.8-.13-20.85,1.96-42.87-25.81-49.28-9.49-19.12-23.47-28.23-46.24-27.12-21.64,1.06-44.97,6.59-64.54-9.38-3.43-2.45-6.57-6.37-10.33-7.1-17.89-3.45-20.46-15.61-20.39-31.05,.06-12.01,1.88-24.33-2.32-36.14l-.07-.64c.49-41.61,1.34-83.24-6.83-124.38-2.8-79.87-9.87-159.46-15.39-239.15-.53-59.19-1.23-118.38-1.51-177.57-.14-28.69,.13-57.39,.96-86.06,.4-13.68,13.41-27.04,.8-41.02,5.39-.79,10.76-2.01,16.17-2.29,63.35-3.25,126.71-6.35,190.07-9.49,35.33-.57,70.66-1.16,105.99-1.71,4.44-.07,8.46-.98,11.46-4.57,2.56-.1,5.11-.2,7.66-.3,2.83,6.84,5.66,13.68,8.5,20.52-5.64,2.47-6.6,7.81-9.05,12.8-15.45,31.5-15.16,69.78-41.58,96.53-.69,.69-.78,2.39-.55,3.5,4.98,24.52-7.51,45.54-14.93,67.03-11.82,34.25-25.27,68.2-36.14,102.57-14,44.26-29.49,88.06-42.75,132.52-6.33,21.2-22.07,40.01-17.84,64.14-.16,35.26,15.8,51.61,50.89,51.65,78.88,.09,157.77,.14,236.65-.05,32.55-.08,50.22-18.7,49.95-51.72-.23-4.87,.55-10.05-.87-14.55-9.96-31.64-21.18-62.91-32.32-94.09-19.32-54.08-37.75-108.4-55.55-162.98-20.23-62.01-41.27-123.77-62.56-185.42-2.55-7.39-.9-18.02-11.72-21.17,.7-7.2,1.39-14.4,2.09-21.6,14.29-1.01,28.31-4.92,42.84-3.47,4.7,.47,10.24,.52,11.62-5.79,1.51-6.86,1.75-13.53-7.61-15.15-10.77-5.97-22.55-1.48-33.72-3.23-5.23-.82-11.42,.05-13.01-7.22-1.33-6.08,.75-15.06-9.39-14.47-8.27,.48-9.01,8.41-11.26,14.66-.94,2.61-3.61,4.59-5.49,6.86-30.35-1.93-60.68-4.27-91.05-5.71-66.84-3.17-133.81-4.04-200.48-10.5,8.91-9.93,17.2-20.5,26.85-29.66,38.03-36.13,65.97-79.76,90.27-125.38,21.98-41.25,37.78-85.33,49.33-130.92,14.02-55.34,18.82-111.43,17.42-168.26-.18-7.29-1.73-14.21-10.68-14.05-13.71,.25-26.24-4.95-39.39-7.06-36.4-5.84-68.68-21.34-96.81-44.07-30.25-24.45-60.98-48.53-88.18-76.63-6.68-6.9-14.12-16.96-25.63-4.66-18.35,19.61-39.25,36.51-59.11,54.52-48,43.53-101.62,73.92-167.61,77.97-13.93,.86-13.43,9.88-13.29,19.13,.83,53.81,3.99,107.3,17.27,159.86,18.88,74.76,49.2,143.94,95.26,206.18,21.84,29.51,47.74,55.36,71.59,83.04-8.46,.92-16.9,2.25-25.38,2.69-88.98,4.59-177.98,9.03-266.97,13.51-.58-4.76-1.04-9.54-1.78-14.28-.75-4.75-3.66-7.46-8.52-7.77-4.65-.29-9.52,1.3-9.6,6.08-.3,18.79-13.65,15.81-25.47,16.51-7.53,.45-15.56-2.34-22.57,2.71-1.77,1.34-3.54,2.69-5.32,4.03-7.72,5.29-5.4,10.46,.18,15.59,16.04,11.19,33.95,2.77,50.86,4.83,.68,4.63,1.37,9.27,2.05,13.9-4.5,20.03-14.33,38.14-19.42,58.27-8.67,34.35-22.34,67.44-33.83,101.09-14.21,41.65-28.37,83.31-42.48,124.99-12.93,38.2-24.02,77.15-39.3,114.39-9.31,22.69-11.32,47.41-24.63,69.41-7.07,11.67-11.76,32.42,4.68,46.28,9.22,15.22,22.12,23.48,40.53,23.43,82.43-.22,164.87,.06,247.3-.2,21.52-.07,35.13-11.63,41.84-33.61,12.63-2.87,7.6-13.18,5.74-18.78-15.03-45.13-31.29-89.84-45.52-135.27-2.44-7.78-2.36-20.72-16.2-24.68,8.74,35.65,21.51,68.13,31.79,101.37,6.03,19.52,16.13,37.98,16.5,59.09-105.24-.03-210.47-.06-315.71-.09-1.22-9.92,.86-19.04,4.38-28.51,11.16-30.02,21.52-60.35,31.71-90.71,18.29-54.5,36.16-109.15,54.33-163.69,18.8-56.45,37.77-112.85,56.55-169.31,2.13-6.39,4.16-12.53,11.52-15.41,1.19,1.71,2.55,2.99,3.08,4.55,19.76,57.77,39.19,115.65,59.36,173.28,4.09,11.67,5.01,26.21,18.84,32.09-.29-6.05-3.35-10.87-4.18-16.05-5.9-36.74-22.54-70.11-33.74-105.12-11.4-35.65-25.28-70.63-35.81-106.68,1.88-8.94,6.9-10.04,15.91-9.66,39.64,1.69,79.34,1.94,119.02,2.72,4.01,.14,8.01,.29,12.02,.43,44.62,9.82,89.99,4.84,135.01,6.74,17.78,1.97,35.92-.12,53.46,4.61-9.79,13.51-.74,26.76,.04,40.28,2.19,37.61,4.05,75.32,3.67,112.97-.64,63.84-3.1,127.66-4.79,191.49-7.08,80.75-12.8,161.58-15.67,242.6-9.68,34.43-5.78,69.82-6.39,104.77-.38,21.83,.37,41.77-26.67,47.56-14.5,13.33-31.96,15.59-50.65,13.86-6.07-.56-12.38,.8-18.33-.18-25.18-4.16-39.93,9.51-51.53,29.05-20.24,9.07-22.48,26.91-22.38,45.88-6.09,.41-12.17,1.18-18.26,1.19-135.25,.08-270.49,.07-405.74,.14-9.13,0-18.39-1.23-27.29,2.05-13.07-.19-24.3,6.4-36.38,9.85-9.7,4.13-16.75-1.22-23.79-6.63-9.61-8.34-19.94-15.99-28.61-25.2-8.72-9.26-22.38-14.04-26.01-27.96,2.48-2.36,5.19-1.58,8.27-1.25,29.7,3.14,57.75,15.13,87.81,16.18,6.93,3.46,13.75,7.58,21.91,3.64,2.4-.74,4.8-1.48,7.21-2.22,8.42,4.74,16.56,10.11,26.2,12.2,14.22,3.08,25.2-3.14,33.75-13.41,9.92-11.92-5.21-12.68-9.04-18.59-1.53-2.36-1.6-5.76-2.02-8.74-.62-4.33-3.4-7.75-7.19-5.91-22.1,10.77-42.72-1.3-63.96-3.39-7.88-5.97-17.26-8.72-26.11-12.72-35.74-16.17-74.17-27.89-95.82-65.81-8.88-15.56-19.96-30.69-33.72-43.07-6.43-11.8-3.75-27.12-14.43-37.27,.55-8.42-6.83-8.43-11.71-11.5-11.73-7.37-12.09-19.13-1.37-28.5,12.88,1,17.81-6.02,20.35-17.8,3.77-17.48-2.35-34.8,.61-52.1,8.26-6.64,19.26-2.14,27.98-6.86,9.09-4.92,19.84-8.75,19.71-21.61-.14-13.06-9.27-19.09-20.19-23.23-20.71-7.86-41.69-7.6-63.23-3.54-34.94,6.58-51.23,31.3-41.45,65.45,3.5,12.22,8.69,23.95,13.1,35.91-.61,6.62-1.78,13.24-1.68,19.84,.18,12.48,.86,24.88-11.87,32.55-12.11,1.36-19.9,8.29-24.51,19.17-9.1,21.46-13.56,43.98-14.44,67.15-2.26,59.59,.39,119.17,.88,178.75-8.51,33.58-4.44,66.69,4,99.55,5.93,23.07,12.97,45.86,18.38,69.04,6.34,27.19,15.08,53.84,10.89,82.86-8.34,57.77-26.39,112.86-43.54,168.27-2.93,9.47-10.32,18.4-5.22,29.39-1.08,8.07,1.44,17.08-6.05,23.5-10.46,10.83-6.15,24.27-6.52,36.89-10.84,11.84-24.46,4.05-36.35,4.06-617.95,.45-1235.91,.37-1853.86,.34-.18-8.55-.52-17.11-.52-25.66-.03-816.49-.05-1632.97,.05-2449.46C4.35,.27-.15,4.83,32.8,4.83c1939.95-.08,3879.9-.07,5819.85-.08,9.79,0,19.59-.1,29.38-.15ZM2596.75,1371.93c-5.4,.33-5.82,3.99-4.62,7.73,4.57,14.3,9.45,28.51,14.23,42.75,1.6,4.78,5.57,7.56,9.8,5.8,5.21-2.17,3.06-7.38,1.23-11.04-5.98-11.94-11.49-23.99-14.04-37.24-.68-3.5-2.5-6.93-6.59-8Z"/>
      <path class="cls-5" d="M4.82,2507.69c617.95,.03,1235.91,.11,1853.86-.34,11.89,0,25.51,7.78,36.35-4.06,29.66-.75,58.84,8.91,88.68,4.11,10.35-.58,20.88,7.31,30.42,2.63,21.25-10.41,36.92,16.77,57.9,7.19,3.46-1.58,6.02,11.98,8.62,8.71,9.61-12.05,28.64-8.29,35.79-22.98,2.47-.04,4.94-.08,7.41-.12,2.04,23.08,23.96,9.67,34.42,18.41,6.88,5.75,4.73-7.48,10.16-8.49,3.5-.65,6.77-2.54,10.14-3.87,9.14-.27,18.28-.77,27.43-.79,146.51-.23,293.01-.39,439.52-.57,1.22,0,2.44,0,3.66,0,3.67,.46,7.34,.92,11.01,1.38,14.69,9.81,29.39,9.77,44.11,.05,20.97-.03,41.94-.05,62.9-.08,9.52,4.05,19.09,3.61,28.7,.3l.23-1.71c8.58,.03,17.16,.06,25.75,.09,1.23-.02,2.47-.03,3.7-.05l-.07,1.46c7.07,5.45,15.24,6.39,23.79,5.84,10.69-2.17,21.39-4.35,32.08-6.52,2.26-.57,5.26,3.74,6.89-1.03,3.84,.13,7.69,.25,11.53,.38,4.52,2.95,9.03,2.41,13.53-.04,5.05-.03,10.1-.05,15.16-.08,4.74,2.67,9.48,2.71,14.24,.06,5.15,0,10.3,.01,15.46,.02,16.89,3.44,33.77,3.48,50.66,0,54.03-.02,108.07-.04,162.1-.06,5.39,.74,10.85,2.45,16.16,2.08,37.87-2.7,75.7-.8,113.56-.09,13.21,.25,26.87,.89,39.4-5.28,1.18-.01,2.33,.17,3.46,.54,14.22,3.13,16.41,21.99,31.46,24.04,7.93,4.22,16.56,3.71,25.13,3.71,87.51,.02,175.03,.66,262.53-.22,33.02-.33,65.75,3.02,98.64,3.93,13.38,.37,26.1-5.43,39.9-1.88,15.17,3.9,25.22-1.28,23.84-19.23,21.36-11.11,25.74-10.33,33.88,6.06-3.59,3.04-9.28,5.18-7.74,11.13,1.74,6.71,7.96,4.16,12.34,4.17,19.86,.04,39.73-.17,59.59-.61,7.39-.16,16.37,4.34,21.3-4.93,4.57-8.61,1.79-16.46-4.51-23.31,440.57,.06,881.15,.13,1321.72,.17,206.82,.02,413.65,0,620.47,0,0,138.86-.23,277.72,.36,416.58,.06,13.77-3.12,16.86-16.89,16.86-1215.99-.37-2431.99-.34-3647.98-.34H4.12c.05-17.06,.13-34.12,.16-51.18,.19-127.33,.36-254.66,.54-381.99Zm3341.96,9.74c-.35,.4-.71,.81-1.06,1.21,.8,.36,1.59,.72,2.39,1.08,.07-.54,.37-1.21,.15-1.57-.24-.39-.96-.49-1.47-.72Z"/>
      <path class="cls-9" d="M4.82,2507.69c-.18,127.33-.35,254.66-.54,381.99-.02,17.06-.1,34.12-.16,51.18-1.13-.8-3.83,1.86-3.71-1.84,.16-4.89,.04-9.78,.04-14.68C.45,1955.58,.5,986.82,0,18.06,0,2.53,3.95,.57,18.2,.58c1949.1,.38,3898.21,.36,5847.31,.59,5.37,0,12.45-4.23,16.53,3.44-9.79,.05-19.59,.15-29.38,.15-1939.95,0-3879.9,0-5819.85,.08C-.15,4.83,4.35,.27,4.35,32.57c-.09,816.49-.07,1632.97-.05,2449.46,0,8.55,.34,17.11,.52,25.66Z"/>
      <path class="cls-8" d="M3939.5,2017.11c10.88,39.73,8.98,80.53,4.96,120.38-10.72,106.43-4.43,212.59-.17,318.87,.32,7.88,1.81,15.97-3.68,22.93-9.51-1.37-19.04-1.78-28.56,0-11.75-11.89-12.77-28.38-17.67-42.99-15.68-46.74-30.2-93.87-45.16-140.86-6.39,23.73-9.65,47.56-13.42,71.32-6.01,37.87-8.73,76.27-18.45,113.54-9.61-1.87-18.98-.97-28.12,2.48-12.77-7.54-8.12-20.86-9.51-31.54-8.27-63.47-16.01-127.16-16.95-191.15-1.34-90.98,18.03-179.23,41.21-266.66,15.67-.23,29.65,11.98,45.9,6.67,14.45-4.72,29.81-4.58,44.21-8.53,12.24-3.35,12.89,2.1,10.74,10.69-2.17,8.67-7.82,16.42-7.02,25.93-1.31,22.3-21.58,32.89-35.35,51.71,7.52-2.52,11.49-5.31,13.69-4.29,4.35,2.03,.77,6.35,.16,9.52-1.03,5.36-3.24,10.49-4.23,15.85-1.16,6.26,1.76,12.83,8.11,10.51,9.97-3.64,21.14-5.48,27.29-17.39,9-17.43,8.96-36.24,12.16-54.6,13.45-1.42,12.48-15.61,19.86-22.4Z"/>
      <path class="cls-8" d="M1907.6,2442.9c-5.1-10.98,2.29-19.92,5.22-29.39,17.15-55.41,35.2-110.5,43.54-168.27,4.19-29.02-4.55-55.68-10.89-82.86-5.4-23.18-12.45-45.97-18.38-69.04-8.44-32.86-12.51-65.98-4.02-99.55,45.06,14.16,88.75,8.76,131.54-9.24,8.91-.22,8.59,7.75,10.41,12.8,14.88,41.39,30.27,82.64,43.57,124.54,11.24,35.4,23.78,70.96,21.36,109.08-3.22,50.74-13.15,100.49-24.02,150-4.55,20.71-6.4,42.22-15.65,61.78-9.34-1.62-18.68-1.7-28.03-.09-.1-6.69-.8-13.44-.2-20.07,4.84-53.61,4.12-107.3,2.93-161-.36-16.42-3.51-32.24-11.16-49.29-9.26,22.71-16.7,43.74-26.22,63.79-27.21,57.31-56.15,113.74-91.64,166.53-9.47-1.57-18.93-1.65-28.37,.29Z"/>
      <path class="cls-8" d="M3354.19,2195.91c3.6,.38,7.33,1.59,10.77,1.02,19.24-3.19,24.25,5.69,22.57,23.45-1.68,17.82-3.98,19.67-34.36,18.31-19-4.82-38.31-1.68-57.48-2.1-24.59,1.13-49.44-3.77-73.77,3.26-9.99-3.38-20.31-3.67-30.75-3.66-106.31,.09-212.62-.11-318.93,.18-16.06,.04-31.65-.74-46.49-7.37-15.67-9.75-23.37-24.37-25.98-42.17-7.4-50.43-5.94-101.32-2.05-151.57,3.88-50.09,22.72-63.24,73.34-63.26,94.26-.03,188.52,.03,282.78-.09,73.33-.09,146.67-.39,220-.6,9.76-.9,14.16,3.25,13.46,13.29-.57,8.23-.29,16.52-.37,24.77-20.11,.54-40.24,1.55-60.37,1.56-145.92,.12-291.84,.03-437.77,.02q-29.85,0-31.37,30.58c-.11,1.36-.22,2.72-.33,4.09-.5,4.82-1,9.63-1.5,14.45-.6,1.14-.64,2.3-.1,3.47-.03,4.91-.06,9.82-.09,14.72,0,1.24,0,2.47,.01,3.71,.01,4.93,.02,9.87,.03,14.8-.41,1.17-.41,2.34,.02,3.51-.03,4.89-.06,9.79-.09,14.68v3.75c.11,5.04,.22,10.08,.33,15.12-.38,.98-.36,1.95,.04,2.91-1.11,11.41-1.53,22.76,2.46,33.8,.81,7.05,0,14.44,4.35,20.76l.36,.47c5.34,7.71,13.44,4.48,20.26,4.49,143.87,.23,287.74,.22,431.61,.15,6.57,0,13.58,1.51,19.44-3.22,1.31,.12,2.62,.24,3.92,.36,4.88,3.9,10.32,3.98,16.01,2.35Z"/>
      <path class="cls-2" d="M3373.84,1971.31c-73.33,.21-146.67,.51-220,.6-94.26,.12-188.52,.06-282.78,.09-50.61,.02-69.46,13.17-73.34,63.26-3.89,50.25-5.35,101.15,2.05,151.57,2.61,17.8,10.32,32.42,25.98,42.17-4.6,10.95-14.43,5.95-22.19,7.28-19.5-1.55-39.01,3.17-58.51-.07-22.19-11.16-36.02-28.32-39.44-53.46-5.61-41.26-7.17-82.81-3.85-124.14,2.57-31.98,2.8-66.47,38.28-85.44-130.81-1.23-259.8-1.25-388.78-1.21-43.49,.01-64,19.91-69.78,63.21-4.88,36.58-3.22,73.13-2.89,109.66,.15,16.85,2.82,33.92,8.31,50.31,7.96,23.77,23.74,37.79,48.79,40.92,4.27,.53,8.56,.6,12.06,3.56-1.25,.05-2.51,.11-3.76,.16-37.84-1.65-75.92,4.12-113.57-3.65-31.34-17.37-41.32-45.3-40.67-79.37,.78-40.68,.38-81.38,.49-122.07,1.75-.46,3.72-.55,5.23-1.43,7.88-4.57,21.61-.29,23.94-12.19,2.05-10.46-10.2-11.82-16.34-16.91-11.52-9.54,1.63-9.07,4.92-12.61,4.27-7.45,14.33-9.65,17.73-18.45-4.83-1.01-8.86-1.85-12.89-2.69,8.9-3.29,18.16-2.06,27.28-2.06,135.25-.07,270.49-.06,405.74-.14,6.09,0,12.17-.77,18.26-1.19,12.21,2.33,24.49,1.63,36.77,.9,13.3-.06,26.61-.12,39.92-.18,101.79,.02,203.59,.03,305.38,.05,13.3,.05,26.61,.1,39.91,.15,6.26-.14,12.53-.28,18.79-.42,81.27,.25,162.53,.45,243.8,.8,8.45,.04,17.18-1.49,25.15,2.97Z"/>
      <path class="cls-10" d="M3939.5,2017.11c-7.38,6.79-6.41,20.98-19.85,22.4-6.87-4.53-20.94,4.78-21.84-11.31-.8-9.51,4.86-17.25,7.02-25.93,2.15-8.59,1.5-14.04-10.74-10.69-14.41,3.95-29.76,3.81-44.21,8.53-16.25,5.31-30.23-6.91-45.9-6.67-.14-17.67-.33-35.35-.41-53.02-.04-9.58-1.54-13.19-12.58-7.57-22.81,11.61-46.63,21.24-70.03,31.68-8.27-6.99-18.51-12.2-21.53-23.91,13.9-17.2,35.16-24.87,51.27-39.46,7.78-7.05,13.9-13.15,17.9-23.51,10.33-26.76,13.92-54.84,20.09-82.44,4.81-21.54,17.73-42.14,41.86-44.09,10.8-.87,27.04-1.89,26.25-20.73,.28,5.35-.91,11.14,3.97,15.38,2.91,8.99,10.55,6.24,16.6,6.19,10.7-.09,21.4-1.07,32.1-1.67,27.74,1.15,45.81,15.31,58.05,39.93,12.89,25.94,19.4,53.68,24.89,81.5,6.98,35.37-11.66,64.44-27.67,93.86-9.14,16.79-16.87,34.35-25.23,51.56Z"/>
      <path class="cls-9" d="M2840.06,1726.09c2.87-81.02,8.58-161.85,15.67-242.6,6.37-14.6,3.29-30.22,4.04-45.25,2.78-55.44,6.09-111,4.98-166.44-.61-30.44-1.15-61-2.21-91.5-.17-4.8-1.23-11.43,3.76-13.3,12.25-4.6,25.71-4.43,37.74-.64,9.51,2.99,5.82,14.02,5.07,21.2-5.76,55.5-3.36,111.17-2.16,166.67,.64,29.61-.21,59.69,6.02,89.08,5.52,79.69,12.59,159.28,15.39,239.14,1.22,33.18,2.37,66.37,3.7,99.55,.33,8.34-1.67,17.03,3.13,24.83,0,0,.07,.64,.07,.64,.05,16.47-.35,32.97,.3,49.42,.47,11.92-4.37,16.35-16.14,16.05-20.75-.54-41.58-1.03-62.28,.14-16.2,.92-21.57-4.84-20.83-20.93,1.94-41.99,2.59-84.04,3.75-126.06Z"/>
      <path class="cls-9" d="M3473.64,2195.75c-1.41-15.98-13.85-18.07-25.95-20.54,3.64-8.35,11.74-10.24,19.16-12.74,45.81-15.39,91.68-30.6,137.54-45.85,6.48-2.16,12.99-3.98,19.34,.44-15,11.76-11.84,24.73-6.01,40.82,16.97,46.87,31.59,94.58,47.45,141.86,3.46,10.32,4.56,23.47,21.68,20.88,5.46-.83,5.44,5.3,5.29,9.66-21.88,7.13-43.73,14.34-65.65,21.33-36.23,11.56-71.63,25.83-109.02,33.67-.1-2.39-.81-4.94-.19-7.13,1.82-6.41,14.42-4.71,11.9-13.8-4.2-15.15-8.99-30.24-15.03-44.73-3-7.21-10.93-2-16.61-2.59-20.14-1.39-37.7-32.08-24.49-45.82,25.13-26.14,14.67-50.27,.59-75.48Z"/>
      <path class="cls-11" d="M2816.54,1075.97c-23.86-27.68-49.75-53.53-71.59-83.04-46.06-62.24-76.38-131.43-95.26-206.18-13.28-52.56-16.44-106.05-17.27-159.86-.14-9.24-.64-18.27,13.29-19.13,65.99-4.05,119.61-34.44,167.61-77.97,19.86-18.01,40.76-34.92,59.11-54.52,11.51-12.3,18.95-2.25,25.63,4.66,27.2,28.1,57.93,52.17,88.18,76.63,28.12,22.73,60.41,38.23,96.81,44.07,13.15,2.11,25.68,7.32,39.39,7.06,8.95-.17,10.5,6.76,10.68,14.05,1.39,56.83-3.4,112.92-17.42,168.26-11.55,45.58-27.35,89.66-49.33,130.92-24.3,45.62-52.23,89.24-90.27,125.38-9.64,9.16-17.93,19.74-26.83,29.66-6.37,.27-10.83,3.2-15.51,7.87-12,12-26.06,21.6-39.89,31.47-8.41,6-14.49,5.44-22.82,0-18.81-12.26-34.33-29.01-54.5-39.31Zm90.09-557.75c-.53-4.36-3.23-6.7-7.25-7.83q-15.69-18.21-32.77-2.49c-9.01,8.24-18.41,16.06-27.38,24.34-49.69,45.86-103.56,83.96-173.33,91.68-13.66,1.51-17.11,8.36-16.32,20.78,3.37,52.96,8.39,105.84,23.04,156.92,34.34,119.79,99.57,219.03,200.71,293.49,3.35,2.47,6.01,6.57,10.99,3.22,54.58-31.73,94.9-78.76,129.62-129.4,64.88-94.64,99.27-200.06,98.73-315.79-.13-28.44-.06-27.4-28.81-32.33-36.99-6.33-71.69-18.87-101.45-43.02-24.96-20.26-50.5-39.79-75.79-59.65v.06Z"/>
      <path class="cls-9" d="M2816.54,1075.97c20.17,10.31,35.69,27.05,54.5,39.31,8.33,5.43,14.41,6,22.82,0,13.84-9.87,27.9-19.47,39.89-31.47,4.68-4.68,9.13-7.6,15.51-7.87,66.66,6.46,133.62,7.32,200.47,10.5,30.37,1.44,60.7,3.78,91.05,5.71,15.68,7.44,11.64,17.54,3.81,28.15-2.56,.1-5.11,.2-7.66,.3-29.62,1.07-59.25,2.02-88.87,3.3-9.56,.41-19.48-1.95-28.58,2.98-63.36,3.14-126.72,6.24-190.07,9.49-5.42,.28-10.78,1.5-16.17,2.29-14.38,10.7-43.06,10.74-56.42,.09-17.54-4.73-35.68-2.65-53.46-4.61-44.87-4.88-89.86-7.35-135.01-6.74-4.01-.14-8.01-.29-12.02-.43-37.15-6.53-74.9-2.26-112.29-6.39-24.8-2.74-27.1-3.78-19.84-28.4,88.99-4.48,177.98-8.93,266.97-13.51,8.48-.44,16.92-1.77,25.38-2.69Z"/>
      <path class="cls-15" d="M2054.62,1984.53c-42.8,18.02-86.49,23.41-131.55,9.26-.48-59.59-3.13-119.16-.87-178.75,.88-23.17,5.34-45.69,14.44-67.15,4.61-10.88,12.4-17.81,24.47-19.16,23.7,.94,48.59-5.19,69.78,11.38,10.68,10.16,8,25.48,14.44,37.28-.97-.72-1.89-1.53-2.94-2.13-.35-.2-1.45,.2-1.45,.23,4.43,33.54,8.93,67.06,13.43,100.59-1.75,.58-3.5,1.17-5.26,1.75-8.8-21.42-17.56-42.87-26.41-64.27-8.85-21.4-16.88-43.22-27.01-64-7.1-14.56-21.5-15.49-35.06-10.66-13.35,4.76-20.29,22.62-14.95,35.24,13.76,32.52,27.91,64.87,41.64,97.4,15.76,37.32,32.51,73.71,74.3,89.38-10.2,5.54-6.65,15.16-7.01,23.62Z"/>
      <path class="cls-15" d="M3376.37,2266.17c8.7,1.99,16.52-.89,24.22-4.35,8.35-.99,11.61,4.11,13.65,11.08,3.51,12.02,7.26,23.97,10.91,35.96-30.66,9.93-62.83,7.75-94.26,11.28-39.69,4.46-77.76,13.39-112.39,33.6-16.78,9.79-34.37,19.53-48.14,32.85-20.38,19.7-45.27,23.96-70.66,25.18-55.41,2.66-104.62,22.14-150.64,51.14-15.9,10.02-32.96,15.95-51.05,18.76-21.82,3.4-43.83,5.4-61.12,21.39-.92,.3-1.79,.72-2.6,1.25-11.27-24.79-6.2-37.69,18.81-46.59,78.72-28.02,157.58-55.69,236.23-83.89,56.8-20.37,113.36-41.38,170.03-62.1,29.8-8.72,58.92-19.4,87.66-31.11,10.21-3.96,22.81-3.06,29.35-14.45Z"/>
      <path class="cls-9" d="M2836.9,2503.07c17.28-15.99,39.29-17.99,61.12-21.39,18.09-2.82,35.14-8.74,51.05-18.76,46.02-29,95.23-48.48,150.64-51.14,25.39-1.22,50.28-5.48,70.66-25.18,13.78-13.32,31.36-23.06,48.14-32.85,34.63-20.21,72.7-29.15,112.39-33.6,31.43-3.53,63.6-1.35,94.25-11.27,4.86,9.28,8.37,18.88,7.2,29.62-14.82,4.88-30.72,6.59-44.32,15.07-16.15-.99-28.77,10.73-44.21,12.25-28.33,8.7-56.66,17.4-84.98,26.1-2.97,.55-6.03,.82-8.91,1.7-96.95,29.57-194.03,58.71-290.71,89.16-24.06,7.58-49.59,11.44-71.7,24.79-2.05,.24-4.1,.48-6.15,.72-10.69,2.17-21.39,4.35-32.09,6.52-4.12-3.92-10.36-5.6-12.38-11.72Z"/>
      <path class="cls-8" d="M3711.37,2448.95c27.09,10.48,29.48,33.22,28.66,57.57-54.94,.33-109.88,.91-164.82,.9-61.66-.02-123.32-.58-184.98-.9,.21-8.43,.43-16.86,.62-25.29,.42-18.27,14.23-25.15,27.6-32.41,97.64,.04,195.29,.09,292.93,.13Z"/>
      <path class="cls-16" d="M3427.72,1619.79c.27,33.02-17.4,51.64-49.95,51.72-78.88,.19-157.77,.14-236.65,.05-35.1-.04-51.05-16.39-50.89-51.65,2.54-.23,5.07-.45,7.61-.67,107.43-.06,214.87-.12,322.3-.18,2.53,.24,5.06,.48,7.59,.73Z"/>
      <path class="cls-16" d="M2355.33,1619.49c105.24,.03,210.47,.06,315.71,.09,11.16,2.48,7.4,11.23,7.69,18.27-6.71,21.98-20.32,33.54-41.84,33.61-82.43,.26-164.87-.03-247.3,.2-18.42,.05-31.31-8.21-40.54-23.44,.53-9.92-8.19-21.86,6.28-28.73Z"/>
      <path class="cls-9" d="M2061.63,1960.91c-41.8-15.67-58.55-52.06-74.31-89.38-13.73-32.53-27.88-64.88-41.64-97.4-5.34-12.62,1.6-30.48,14.95-35.24,13.57-4.83,27.96-3.91,35.06,10.66,10.13,20.78,18.16,42.6,27.01,64,8.85,21.4,17.61,42.84,26.39,64.26,7.86,19.89,26.13,29.43,41.64,41.72,2.34,1.36,4.64,3.07,7.45,1.03l-.16-.1c3.64,13.93,17.3,18.71,26.01,27.96,8.67,9.21,19.01,16.87,28.61,25.2-4.1,8.95-2.37,22.03-16.8,23.65-24.74-12.12-49.48-24.24-74.22-36.36Z"/>
      <path class="cls-14" d="M2857.43,2041.54q1.52-30.56,31.37-30.58c145.92,0,291.84,.09,437.77-.02,20.13-.02,40.25-1.03,60.37-1.56-2.87,3.3-6.8,6.64-10.73,5.37-24.24-7.84-24.46,11.39-29.41,25.41-22.55,.45-45.1,1.23-67.65,1.25-140.57,.14-281.15,.11-421.72,.13Z"/>
      <path class="cls-3" d="M2857.43,2041.54c140.57-.03,281.15,0,421.72-.13,22.55-.02,45.1-.81,67.65-1.25,.05,34.1,.07,68.21,.17,102.33,.06,18.12-1.59,36.49,7.23,53.43-5.7,1.64-11.14,1.55-16.01-2.35,1.36-2.13,5.59-1.24,5.31-5.07,.54-13.02-7.87-14.65-18.11-14.62-37.92,.12-75.84,.03-113.76,.03-109.48,0-218.97,.01-328.45,.02-11.23,0-23.62-1.46-20.67,16.39l.08,1.01c-4.34-6.31-3.55-13.7-4.35-20.76,7.95-.16,15.89-.45,23.84-.45,147.38-.03,294.77,.04,442.15-.24,5.49-.01,15.59,4.53,15.5-6.33-.08-9.34-9.31-7.63-15.78-7.91-5.49-.24-11.01-.07-16.51-.07-141.27,0-282.54,.02-423.81-.13-6.3,0-13.01,1.98-22.41-3.72,30.19,0,56.95,0,83.71,0,124.76,0,249.51,0,374.27-.03,10.25,0,22.36,2.26,20.59-14.7,.26-.36,.76-.74,.72-1.06-.09-.78-.42-1.54-.66-2.3,1.56-16.72-10.26-14.69-20.64-14.7-154.6-.06-309.2-.13-463.79-.19,0-1.25,0-2.5,0-3.75,153.48-.06,306.97-.01,460.45-.48,7.69-.02,22.16,5.9,21.8-7.66-.29-10.9-14.05-6.13-21.71-6.15-153.48-.36-306.97-.34-460.45-.39-.42-1.17-.43-2.34-.02-3.51,153.49-.06,306.97-.04,460.46-.4,7.66-.02,21.39,4.77,21.72-6.14,.41-13.63-14.05-7.74-21.75-7.76-153.48-.47-306.97-.43-460.46-.49,0-1.24,0-2.47-.01-3.71,152.86-.05,305.72,.03,458.57-.49,8.22-.03,23.79,6.74,23.49-7.65-.23-11.01-15.21-5.92-23.42-5.95-152.86-.47-305.71-.51-458.57-.63-.54-1.17-.51-2.33,.1-3.47,152.92-.11,305.85-.2,458.78-.34,6.1,0,12.22-.19,18.31-.65,3.28-.25,5.73-2.25,6.06-5.75,.42-4.5-2.34-6.82-6.38-7.31-4.23-.51-8.54-.54-12.81-.54-154.15,.03-308.3,.09-462.45,.15,.11-1.36,.22-2.72,.33-4.09Z"/>
      <path class="cls-13" d="M3390.22,2506.52c61.66,.32,123.32,.88,184.98,.9,54.94,.01,109.89-.57,164.82-.9,14.86,7.43,27.54,.04,40.43-5.95,10.62,12.49,22.99,15.1,37.32,6.57,2.4,2.65,4.8,5.31,7.21,7.96,1.39,17.95-8.67,23.13-23.84,19.23-13.8-3.54-26.52,2.25-39.9,1.88-32.89-.91-65.62-4.26-98.64-3.93-87.5,.88-175.02,.24-262.53,.22-8.56,0-17.19,.52-25.13-3.71-5.06-14.36,.26-21.63,15.26-22.28Z"/>
      <path class="cls-9" d="M2054.37,1876.07c-4.5-33.53-8.99-67.06-13.43-100.59,0-.03,1.1-.43,1.45-.23,1.04,.6,1.97,1.4,2.94,2.13,13.76,12.38,24.84,27.51,33.72,43.07,21.65,37.92,60.07,49.64,95.82,65.81,8.85,4,18.23,6.76,26.11,12.72,13.18,9.23,34.41,13.72,22.27,37.83-2.4,.74-4.8,1.48-7.21,2.22-7.18-1.95-14.22-4.77-21.91-3.64-30.06-1.04-58.11-13.04-87.81-16.18-3.09-.33-5.79-1.11-8.27,1.25,0,0,.16,.1,.16,.1,1.65-6.38-3.1-6.66-7.2-7.56-14.67-9.87-25.16-23.89-36.61-36.94Z"/>
      <path class="cls-3" d="M3427.72,1619.79c-2.53-.24-5.06-.48-7.59-.73-19.67-58.55-39.21-117.15-59.04-175.65-18.67-55.06-38.82-109.65-56.11-165.14-12.4-39.8-29.73-77.95-39.06-118.72-1.02-4.45-2.85-8.59-8.02-8.54-5.95,.06-5.19,5.44-6.44,9.38-6.05,19.01-12.28,37.97-18.59,56.9-18.4,55.16-36.79,110.31-55.34,165.41-6.16,18.31-12.89,36.43-19.2,54.7-8.32,24.05-16.67,48.09-24.68,72.25-12.09,36.48-23.89,73.05-35.82,109.58-2.54,.22-5.07,.45-7.61,.67-4.22-24.12,11.52-42.93,17.84-64.14,13.27-44.46,28.76-88.26,42.75-132.52,10.87-34.37,24.32-68.32,36.14-102.57,7.42-21.49,19.91-42.52,14.93-67.03-.23-1.11-.13-2.81,.55-3.5,26.42-26.75,26.13-65.03,41.58-96.53,2.45-4.99,3.41-10.33,9.05-12.78,4.01-2.01,7.82-.66,11.62,.74,10.82,3.15,9.17,13.78,11.72,21.17,21.29,61.66,42.33,123.41,62.56,185.42,17.81,54.58,36.23,108.9,55.55,162.98,11.14,31.17,22.37,62.45,32.32,94.09,1.41,4.5,.63,9.68,.87,14.55Z"/>
      <path class="cls-12" d="M2968.31,1881.75c19.57,15.96,42.89,10.44,64.54,9.38,22.77-1.11,36.75,8,46.27,27.11-6.12-.27-12.27-.53-18.43-.8-14.43-1.14-28.85-1.58-43.25,.31-81.49,.04-162.97,.08-244.46,.12-17.91-1.54-35.81-2.56-53.65,.86-11.17-2.27-22.2-2.54-32.84,2.4,11.6-19.54,26.35-33.22,51.53-29.05,5.95,.98,12.26-.38,18.33,.18,18.69,1.73,36.15-.52,50.65-13.87-10.91,10.45-7.93,15.86,6.32,15.9,48.93,.16,97.85-.17,146.78,.07,10.49,.05,11.03-4.82,8.21-12.62Z"/>
      <path class="cls-3" d="M2355.33,1619.49c-14.47,6.87-5.75,18.81-6.28,28.73-16.44-13.86-11.74-34.61-4.67-46.28,13.32-22,15.33-46.71,24.63-69.41,15.27-37.24,26.37-76.19,39.3-114.39,14.11-41.68,28.27-83.35,42.48-124.99,11.48-33.65,25.16-66.74,33.83-101.09,5.08-20.14,14.92-38.24,19.41-58.26,5.75,4.72,11.52,7.36,17.36,.12,10.53,36.05,24.41,71.03,35.81,106.68,11.19,35.01,27.84,68.38,33.74,105.12,.83,5.18,3.89,10.01,4.18,16.05-13.83-5.88-14.76-20.42-18.84-32.09-20.17-57.63-39.6-115.51-59.36-173.28-.53-1.56-1.9-2.83-3.08-4.55-7.37,2.88-9.4,9.02-11.52,15.41-18.78,56.46-37.75,112.86-56.55,169.31-18.16,54.55-36.04,109.19-54.33,163.69-10.19,30.37-20.55,60.7-31.71,90.71-3.52,9.48-5.6,18.59-4.38,28.51Z"/>
      <path class="cls-4" d="M1974.72,1676.32c-4.42-11.95-9.62-23.69-13.12-35.9-9.78-34.15,6.51-58.87,41.45-65.45,21.54-4.06,42.52-4.32,63.23,3.54,10.92,4.14,20.05,10.18,20.19,23.23,.13,12.86-10.62,16.69-19.71,21.61-8.72,4.73-19.72,.23-27.98,6.87-21.57-5.84-26.59-3.44-30.27,15.38-.75,3.84-2.49,5.01-5.74,5.19-12.21,.66-10.6,8.93-9.31,16.91,.97,5.98,1.98,11.9-1.06,17.61-8.75,2.59-11.68-6.23-17.69-9Z"/>
      <path class="cls-13" d="M3838.89,1653c-2.64-2.36-5.17-4.86-7.93-7.07-11.24-8.98-23.11-18.51-17.5-34.85,5.61-16.34,22.28-19.27,36.11-20.41,49.13-4.07,72.1,28.04,62.07,73-3.56,15.98-12.62,29.76-19.28,44.5-2.22-.12-4.43-.25-6.64-.37-8.91-8.47-4.64-19.47-5.67-29.45-.48-4.68-.53-13.89-3.59-12.7-15.52,5.99-17.38-8.19-24.37-14.54-5.39-4.89-8.75,1.67-13.18,1.9Z"/>
      <path class="cls-12" d="M3623.73,2117.07c-6.35-4.42-12.86-2.6-19.34-.44-45.86,15.25-91.73,30.46-137.54,45.85-7.42,2.49-15.52,4.39-19.16,12.74-23.75-13.04-25.92-19.47-11.9-35.16,59.53-16.81,118.18-36.28,175.96-58.36q20.07,3.72,11.98,35.37Z"/>
      <path class="cls-12" d="M3517.47,2385.3c37.39-7.84,72.78-22.11,109.02-33.67,21.92-6.99,43.77-14.21,65.65-21.33,22.95,3.78,25.86,10.86,12.98,31.51-6.47-5.89-13.04-1.2-18.89,.69-37.17,12.03-74.28,24.25-111.12,37.26-15.96,5.64-33.74,6.72-47.5,18.12-23.21-11.51-24.03-14.14-10.14-32.58Z"/>
      <path class="cls-4" d="M3343.81,2365.79c15.45-1.53,28.06-13.25,44.21-12.25-2.53,29.1,.45,58.32-3.36,87.49-3.71,28.36-12.87,51.85-41.16,63.72-1.12-.37-2.27-.55-3.46-.54-7.31-1.31-15.45,2.16-23.04-3.12,44.48-38.95,29.62-88.27,26.81-135.3Z"/>
      <path class="cls-15" d="M2856.81,1138.75c13.36,10.65,42.05,10.61,56.42-.09,12.61,13.97-.4,27.34-.8,41.02-.83,28.67-1.1,57.37-.96,86.06,.28,59.19,.98,118.38,1.51,177.57-6.24-29.39-5.39-59.47-6.02-89.08-1.2-55.5-3.6-111.16,2.16-166.67,.75-7.18,4.44-18.2-5.07-21.2-12.03-3.79-25.49-3.96-37.74,.64-4.98,1.87-3.92,8.5-3.76,13.3,1.06,30.49,1.6,61.05,2.21,91.5,1.11,55.43-2.2,111-4.98,166.44-.75,15.03,2.33,30.65-4.04,45.25,1.69-63.83,4.15-127.65,4.79-191.49,.38-37.65-1.49-75.36-3.67-112.97-.79-13.52-9.83-26.77-.04-40.28Z"/>
      <path class="cls-15" d="M2968.31,1881.75c2.82,7.81,2.29,12.68-8.21,12.62-48.92-.24-97.85,.08-146.78-.07-14.25-.05-17.23-5.45-6.32-15.9,27.04-5.78,26.28-25.71,26.67-47.55,.61-34.94-3.29-70.34,6.39-104.77-1.16,42.03-1.81,84.08-3.75,126.06-.74,16.09,4.62,21.85,20.83,20.93,20.7-1.18,41.53-.68,62.28-.14,11.77,.31,16.61-4.12,16.14-16.05-.65-16.45-.25-32.95-.3-49.42,4.2,11.81,2.38,24.13,2.32,36.14-.07,15.44,2.5,27.59,20.39,31.05,3.76,.73,6.9,4.65,10.33,7.1Z"/>
      <path class="cls-12" d="M3443.2,2126.3c-10.11-15.11-2.17-22.38,11.74-27.21,37.67-13.09,76.66-22.09,113.67-37.4,12.58-5.2,24.17-1.18,28.98,13.65-30.92,14.97-64.25,23.19-96.68,33.81-19.03,6.23-37.04,16.33-57.71,17.15Z"/>
      <path class="cls-12" d="M3698.33,2371.75c6.21,23.27-13.23,28.18-26.89,31.08-28.49,6.04-55.64,16.17-82.57,25.91-21.28,7.7-38.27,7.62-55.97-5.13,6.38-1.87,12.82-3.58,19.15-5.63,48.65-15.75,96.09-35.31,146.27-46.22Z"/>
      <path class="cls-13" d="M3711.37,2448.95c-97.64-.04-195.28-.09-292.93-.13,2.7-10.83,11.28-11.54,20.14-11.54,84.26,0,168.52,.06,252.78,.07,8.96,0,17.4,.73,20.01,11.59Z"/>
      <path class="cls-13" d="M1983.71,2507.4c-29.85,4.8-59.03-4.86-88.68-4.11,.37-12.62-3.94-26.05,6.51-36.89,8.01,10.17,17.13,13.13,28.06,4.31,14.26,6.18,30.02,8.44,43.42,16.85,7.35,4.62,14.51,9.25,10.69,19.84Z"/>
      <path class="cls-15" d="M3699.43,1940.6c3.01,11.71,13.26,16.93,21.53,23.91-8.16,23.48-41.39,42.01-64.13,35.76-10.57-2.9-12.09-11.39-3.91-20.7,4.25-4.84,11.89-6.46,8.13-17.4-2.37-6.9,10.33-8.93,16.37-9.62,9.57-1.1,15.64-6.25,22.02-11.95Z"/>
      <path class="cls-15" d="M1992.41,1685.32c3.05-5.71,2.03-11.63,1.06-17.61-1.3-7.99-2.9-16.26,9.31-16.91,3.24-.17,4.99-1.35,5.74-5.19,3.68-18.82,8.7-21.23,30.27-15.38-2.96,17.3,3.15,34.62-.62,52.1-2.54,11.77-7.47,18.79-20.36,17.8-8.36-5.12-21.84-1.47-25.4-14.8Z"/>
      <path class="cls-15" d="M2135.86,1997.28c14.43-1.62,12.71-14.7,16.8-23.65,7.03,5.41,14.09,10.76,23.8,6.62-2.95,4.52-.87,6.01,3.68,6.68,9.31,1.38,18.57,3.07,27.85,4.63-3.28,3.54-16.43,3.07-4.92,12.61,6.14,5.09,18.38,6.45,16.34,16.91-2.33,11.89-16.06,7.61-23.94,12.19-1.51,.88-3.47,.97-5.23,1.43-11.14-6.82-22.27-13.64-33.4-20.45-3.22-10.31-12.95-12.59-20.98-16.97Z"/>
      <path class="cls-15" d="M2223.24,1936.81c12.14-24.11-9.08-28.6-22.27-37.83,21.24,2.09,41.86,14.16,63.96,3.39,3.78-1.84,6.57,1.58,7.19,5.91,.42,2.97,.49,6.37,2.02,8.74,3.83,5.91,18.96,6.67,9.04,18.59-8.55,10.28-19.53,16.49-33.75,13.41-9.64-2.09-17.78-7.46-26.2-12.2Z"/>
      <path class="cls-15" d="M3838.89,1653c4.44-.23,7.79-6.78,13.18-1.9,7,6.35,8.86,20.53,24.37,14.54,3.07-1.18,3.11,8.02,3.59,12.7,1.03,9.98-3.25,20.98,5.68,29.46-.15,3.32-1.65,6.36-4.87,6.73-19.58,2.26-21.35,15.71-20.1,31.2-4.88-4.24-3.69-10.03-3.97-15.38-24.47-21.47-16.1-50.59-17.9-77.36Z"/>
      <path class="cls-12" d="M3420.89,2236.7c4.52-16.75,9.09-18.47,24.21-9.12-.39,2.87-1.9,6.13-1.07,8.61,11.55,34.53,20.69,69.89,35.3,103.38-3.01,16.58-6.67,17.91-21.63,7.83-6.87-38.65-20.77-74.96-36.74-110.59l-.07-.11Z"/>
      <path class="cls-13" d="M3939.85,2507.59c6.3,6.85,9.09,14.7,4.51,23.31-4.93,9.28-13.91,4.77-21.3,4.93-19.86,.43-39.73,.65-59.59,.61-4.38,0-10.59,2.54-12.34-4.17-1.54-5.95,4.15-8.08,7.73-11.13,15.76-3.3,27.95-14.44,42.94-19.45,18.98,16.78,33.56,16.31,39.92-1.31,1.15-.85,1.29-1.8,.43-2.85-7.9,1.72-8.24,5.16-2.31,10.05Z"/>
      <path class="cls-15" d="M3479.32,2339.57c-14.61-33.49-23.75-68.85-35.3-103.38-.83-2.48,.68-5.75,1.07-8.61,4.76,.66,6.26,5.43,9.66,7.72,6.96,4.69,14.29,2.47,20.79-.64,7.31-3.5,4.32-10.57,3.22-16.19-1.49-7.6-6.4-14.45-5.13-22.72,14.08,25.22,24.55,49.34-.58,75.48-13.21,13.74,4.35,44.42,24.49,45.82-14.27,.89-10.59,16.27-18.22,22.52Z"/>
      <path class="cls-15" d="M2521.39,1133.91c-5.84,7.23-11.61,4.6-17.36-.12-.68-4.64-1.36-9.28-2.04-13.91q.49-24.75-24.18-24.55c-7.18,.06-14.37,.06-21.55,.09,7-5.04,15.03-2.26,22.57-2.71,11.82-.7,25.17,2.28,25.47-16.51,.08-4.78,4.95-6.37,9.6-6.08,4.85,.31,7.77,3.02,8.52,7.77,.74,4.74,1.2,9.52,1.78,14.28-7.26,24.62-4.96,25.66,19.84,28.4,37.39,4.13,75.14-.13,112.29,6.39-39.68-.77-79.38-1.03-119.02-2.72-9.01-.38-14.03,.72-15.91,9.66Z"/>
      <path class="cls-9" d="M3443.2,2126.3c20.67-.82,38.68-10.92,57.71-17.15,32.43-10.63,65.76-18.84,96.68-33.81,6.05-.81,12.11-1.68,14.17,6.36-57.78,22.08-116.42,41.55-175.96,58.36-1.5-6.72,1.06-11.26,7.4-13.76Z"/>
      <path class="cls-9" d="M3698.33,2371.75c-50.18,10.91-97.62,30.47-146.27,46.22-6.33,2.05-12.78,3.76-19.15,5.63-1.75-1.9-3.52-3.8-5.29-5.72,13.76-11.42,31.54-12.5,47.5-18.13,36.83-13.01,73.95-25.23,111.12-37.26,5.85-1.89,12.42-6.58,18.89-.69,.43,5.15-3.94,7.03-6.79,9.95Z"/>
      <path class="cls-15" d="M2686.49,1921.14c10.64-4.94,21.67-4.67,32.84-2.41-14.42,13.3-21.53,29.34-18.45,49.2-12.28,.72-24.56,1.42-36.77-.9-.1-18.97,2.14-36.81,22.38-45.88Z"/>
      <path class="cls-3" d="M2678.73,1637.84c-.29-7.04,3.47-15.79-7.69-18.27-.37-21.11-10.47-39.57-16.5-59.09-10.28-33.24-23.05-65.72-31.79-101.37,13.84,3.96,13.76,16.9,16.2,24.68,14.23,45.43,30.5,90.14,45.52,135.27,1.86,5.59,6.89,15.91-5.74,18.78Z"/>
      <path class="cls-12" d="M1992.41,1685.32c3.56,13.33,17.04,9.68,25.4,14.8-10.71,9.36-10.36,21.13,1.37,28.5,4.89,3.07,12.27,3.07,11.71,11.5-21.19-16.57-46.08-10.44-69.78-11.39,12.77-7.68,12.09-20.07,11.91-32.55-.1-6.6,1.07-13.23,1.68-19.84,6.03,2.76,8.96,11.59,17.71,8.99Z"/>
      <path class="cls-4" d="M3376.37,2266.17c-6.54,11.39-19.14,10.5-29.34,14.45-13.12-18.6-28.45-34.57-50.62-42.42-.39-.14-.5-1.05-.74-1.61,19.18,.42,38.48-2.72,57.48,2.1-1.68,1.86-10.1,1.72-4.67,5.01,10.49,6.34,17.43,16.51,27.88,22.47Z"/>
      <path class="cls-12" d="M3432.34,2338.47c1.17-10.74-2.34-20.34-7.2-29.62-3.65-11.99-7.39-23.94-10.9-35.96-2.03-6.97-5.3-12.06-13.65-11.08,6.77-8.38,13.53-16.75,20.29-25.12,0,0,.07,.12,.07,.11-1.67,10.76,3.13,20.12,6.34,29.88,8.69,26.46,17.11,53.01,25.64,79.53-6.86-2.58-13.73-5.17-20.59-7.75Z"/>
      <path class="cls-15" d="M3264.7,1141.58c-3.8-1.4-7.6-2.75-11.62-.74-2.83-6.86-5.67-13.7-8.5-20.54,7.83-10.61,11.87-20.72-3.81-28.15,1.88-2.27,4.55-4.25,5.49-6.86,2.25-6.24,2.99-14.17,11.26-14.66,10.14-.59,8.06,8.39,9.39,14.47,1.59,7.28,7.78,6.4,13.01,7.22,11.18,1.75,22.95-2.74,33.76,3.22-7.29-.08-14.62-.16-21.94-.24q-25.23-.29-24.95,24.66c-.7,7.2-1.39,14.4-2.09,21.6Z"/>
      <path class="cls-9" d="M3266.79,1119.98q-.28-24.95,24.95-24.66c7.33,.08,14.65,.16,21.94,.24,9.32,1.62,9.07,8.3,7.57,15.16-1.38,6.31-6.92,6.26-11.62,5.79-14.53-1.44-28.56,2.47-42.84,3.47Z"/>
      <path class="cls-9" d="M2456.26,1095.42c7.18-.03,14.37-.03,21.55-.09q24.67-.2,24.18,24.55c-16.91-2.06-34.82,6.36-50.86-4.82-.06-5.19-.12-10.4-.18-15.61,1.77-1.34,3.54-2.69,5.32-4.03Z"/>
      <path class="cls-12" d="M3860.76,1745.74c-1.24-15.5,.52-28.94,20.1-31.2,3.22-.37,4.71-3.41,4.87-6.73,2.2,.12,4.41,.24,6.63,.36-4.24,18.1,.23,32.65,17.15,42.09-10.75,.6-21.45,1.58-32.15,1.67-6.05,.05-13.69,2.79-16.6-6.19Z"/>
      <path class="cls-15" d="M3060.69,1917.45c6.15,.26,12.31,.52,18.42,.79,27.73,6.42,25.64,28.43,25.77,49.29-6.26,.14-12.52,.28-18.79,.42,3.97-23.08-6.72-38.8-25.4-50.5Z"/>
      <path class="cls-15" d="M3941.72,2500.39c-6.36,17.61-20.94,18.09-39.92,1.31,13.95-2.66,10.81-13.12,10.23-22.4,9.52-1.79,19.05-1.38,28.56,0-.73,1.95-1.45,3.91-2.17,5.86-3.45,6.06-5.67,11.86,3.29,15.24Z"/>
      <path class="cls-12" d="M1929.6,2470.71c-10.93,8.82-20.05,5.86-28.06-4.31,7.5-6.43,4.98-15.43,6.06-23.51,9.44-1.94,18.9-1.86,28.37-.29-2.58,9.26-8.65,17.74-6.38,28.1Z"/>
      <path class="cls-15" d="M3452.93,2346.22c-8.53-26.52-16.95-53.07-25.64-79.53-3.21-9.76-8.01-19.12-6.34-29.88,15.97,35.63,29.87,71.94,36.74,110.59-1.58-.39-3.17-.78-4.76-1.18Z"/>
      <path class="cls-15" d="M2668.34,1127.4c45.15-.61,90.14,1.86,135.01,6.74-45.02-1.9-90.38,3.08-135.01-6.74Z"/>
      <path class="cls-3" d="M2596.75,1371.93c4.09,1.07,5.92,4.5,6.59,8,2.56,13.25,8.06,25.29,14.04,37.24,1.83,3.66,3.98,8.87-1.23,11.04-4.23,1.76-8.2-1.02-9.8-5.8-4.77-14.24-9.65-28.45-14.23-42.75-1.2-3.74-.78-7.4,4.62-7.73Z"/>
      <path class="cls-8" d="M2207.99,1991.56c-9.28-1.56-18.54-3.26-27.85-4.63-4.55-.67-6.63-2.16-3.68-6.68,12.06-3.44,23.29-10.03,36.36-9.84,4.04,.85,8.07,1.69,12.9,2.7-3.4,8.81-13.46,11-17.73,18.45Z"/>
      <path class="cls-15" d="M3817.78,2507.14c-14.33,8.53-26.7,5.92-37.32-6.57,2.48-.58,4.95-1.16,7.42-1.73,1.96-1.2,4.89-1.95,5.76-3.7,6.26-12.69,11.92-13.08,17.99,.11,1.19,2.6,3.69,4.59,5.58,6.87,.19,1.68,.38,3.35,.57,5.03Z"/>
      <path class="cls-15" d="M3119.47,1126.88c9.11-4.93,19.02-2.56,28.58-2.98,29.62-1.28,59.25-2.23,88.87-3.3-3,3.59-7.03,4.5-11.46,4.57-35.33,.55-70.66,1.14-105.99,1.71Z"/>
      <path class="cls-15" d="M2935.19,1806.83c-4.81-7.8-2.8-16.49-3.13-24.83-1.33-33.18-2.48-66.37-3.7-99.55,8.16,41.14,7.32,82.77,6.83,124.38Z"/>
      <path class="cls-12" d="M3817.21,2502.11c-1.89-2.27-4.39-4.27-5.58-6.87-6.07-13.2-11.73-12.81-17.99-.11-.87,1.76-3.79,2.5-5.76,3.7,.45-5.36,.89-10.71,1.33-16.05,9.15-3.45,18.52-4.35,28.12-2.48-.04,7.27-.08,14.54-.13,21.81Z"/>
      <path class="cls-15" d="M2450.94,1099.45c.06,5.21,.12,10.41,.18,15.61-5.58-5.15-7.91-10.32-.18-15.61Z"/>
      <path class="cls-15" d="M2194.12,1935.39c7.69-1.12,14.73,1.7,21.91,3.64-8.16,3.94-14.98-.18-21.91-3.64Z"/>
      <path class="cls-5" d="M3941.72,2500.39c-8.96-3.38-6.75-9.18-3.29-15.24,1.21,4.1,2.43,8.2,3.68,12.35,.9,1.09,.76,2.04-.39,2.89Z"/>
      <path class="cls-4" d="M3259.37,2311.73c-56.67,20.72-113.23,41.73-170.03,62.1-78.66,28.21-157.51,55.87-236.23,83.89-25.01,8.9-30.08,21.81-18.82,46.59-2.94,1.54-5.87,3.09-8.8,4.64,0,0,.07-1.46,.07-1.45-1.23,.02-2.47,.03-3.7,.05-8.58-.03-17.16-.06-25.75-.09,1.16-2.1,1.78-5.02,3.55-6.18,28.41-18.56,34.06-46.42,33.41-77.68-.74-35.26-.17-70.54-.18-105.82-.01-33.31-11.45-60.27-43.11-76.03,4.97-1.98,9.37-3.72,13.77-5.47,7.76-1.33,17.6,3.67,22.19-7.28,14.84,6.63,30.43,7.42,46.49,7.37,106.31-.3,212.62-.1,318.93-.18,10.44,0,20.76,.28,30.75,3.66,22.22,18.9,32.39,44.07,37.45,71.89Z"/>
      <path class="cls-4" d="M2343.98,2239.78c1.25-.05,2.51-.11,3.76-.16,9.99,3.16,20.21,4.16,30.65,3.77,101.27-3.79,202.91,8.08,303.92-7.05,3.35,9.51,11.48,6.33,18.22,6.85,29.46,15.08,40.19,40.8,40.42,72.08,.28,38.35,.31,76.71-.03,115.06-.14,15.83-3.01,31-10.18,45.73-11.66,23.95-33.79,27.17-55.95,31.29-4.87,.52-9.75,1.03-14.62,1.55-3.67-.46-7.34-.92-11.01-1.38-1.22,0-2.44,0-3.66,0-146.51,.18-293.01,.34-439.52,.57-9.14,.01-18.28,.51-27.43,.79-1.14-.53-2.28-1.05-3.42-1.58-6.14-4.37-12.95-3.14-19.71-2.39-3.29-11.69-13.57-25.1,2.8-33.6,7.78-4.04,18.21-6.62,28.06-3.19,6.05,4.14,12.96,2.99,19.6,2.99,148.68,.05,297.35,.05,446.03,0,6.62,0,13.57,1.24,19.46-3.32,1.17-1.41,2.33-2.82,3.5-4.22,3.82-4.61,3.44-10.19,3.58-15.63,1.2-2.11,2.4-4.22,3.6-6.34,6.98-46.12,5.98-92.27,.43-138.43-.06-.51-.74-.94-1.12-1.4-.98-.63-1.91-1.34-2.79-2.12-.32-1.73-.64-3.45-.96-5.18,.31-.88,.24-1.73-.22-2.54-.24-11.35-7.99-11.72-16.53-11.71-156.9,.18-313.8,.27-470.7,.37-12.44-.54-24.88-1.07-37.32-1.61,.06-3.03-.04-6.08,.2-9.1,1.98-24.23,4.18-25.81,28.57-26.55,11.27-.34,23.14,3.36,33.77-3.53,5.01-.09,10.01-.18,15.02-.28,11.25,7.31,23.86,3.94,35.68,3.53,25.96-.91,52.24,4.48,77.9-3.27Z"/>
      <path class="cls-6" d="M2152.85,2278.98c12.44,.54,24.88,1.07,37.31,1.61-.04,3.36-.08,6.73-.11,10.09,1.39,7.54-.95,15.65,3.52,22.71,.02,38.31,.04,76.63,.06,114.94l.08,1.22c-5.36,7.51-3.9,16.02-3.61,24.36l-.05,1.25c-1.63,15.33,10.5,8.08,15.57,8.09,150.16,.46,300.32,.38,450.48,.28,6.05,0,12.09-1.02,18.14-1.56,0,0,.65,1.59,.65,1.59-1.17,1.41-2.33,2.82-3.5,4.22-148.29-.21-296.58-.44-444.86-.57-13.41-.01-26.81,.59-40.22,.91-9.85-3.44-20.27-.86-28.06,3.19-16.36,8.5-6.09,21.91-2.79,33.6,6.22,3.66,12.92,3.33,19.7,2.39,1.14,.53,2.28,1.05,3.42,1.58-3.38,1.34-6.64,3.22-10.14,3.88-5.44,1.01-3.28,14.24-10.16,8.49-10.46-8.74-32.38,4.67-34.42-18.41,5.27-3.52,15.58,1.22,16.71-7.64,1.07-8.4-7.3-12.17-13.85-14.93-13.95-5.88-28.28-10.83-42.46-16.16-2.32-8.34,3.14-14.49,6.04-21.37,9.25-19.56,11.1-41.06,15.65-61.78,10.86-49.51,20.79-99.27,24.02-150,2.42-38.12-10.12-73.67-21.36-109.08-13.31-41.9-28.7-83.15-43.57-124.54-1.82-5.06-1.5-13.03-10.41-12.8,.36-8.48-3.18-18.09,7.02-23.63,24.74,12.12,49.48,24.24,74.23,36.36,8.04,4.37,17.76,6.65,20.98,16.97-9.81,48.83-7.26,98.06-4.82,147.29,1.75,35.27,10.98,65.72,50.67,76.99-7.82,1.01-14.51,.96-21.21,1.02-32.98,.27-33.98,1.39-30.73,34.53,.17,1.69,1.37,3.27,2.1,4.9Z"/>
      <path class="cls-1" d="M2674.81,2507.35c22.15-4.12,44.29-7.35,55.95-31.29,7.17-14.72,10.04-29.89,10.18-45.73,.33-38.35,.31-76.71,.03-115.06-.23-31.29-10.97-57-40.42-72.08,.06-2.2,.11-4.41,.17-6.62,14.78-.12,29.56-.25,44.34-.37,19.5,3.24,39.01-1.48,58.51,.07-4.4,1.75-8.8,3.49-13.77,5.47,31.66,15.76,43.09,42.72,43.11,76.03,.02,35.27-.55,70.56,.18,105.82,.65,31.26-5,59.12-33.41,77.68-1.77,1.16-2.39,4.08-3.55,6.18,0,0-.23,1.71-.23,1.71-9.56-.1-19.13-.2-28.7-.3-20.97,.03-41.94,.05-62.9,.07-9.83-.53-19.65-1.06-29.48-1.59Z"/>
      <path class="cls-6" d="M1929.6,2470.71c-2.28-10.36,3.79-18.84,6.38-28.1,35.49-52.79,64.42-109.22,91.64-166.53,9.52-20.05,16.96-41.08,26.22-63.79,7.65,17.05,10.8,32.87,11.16,49.29,1.19,53.7,1.91,107.4-2.93,161-.6,6.63,.1,13.37,.2,20.06-.67,6.02-1.33,12.05-1.99,18.08-16.16,6.64-9.29,20.61-9.16,31.68,.07,6.63,8.25,7.42,13.21,6.29,17.97-4.09,34.72,3.5,52.12,4.25-7.14,14.69-26.18,10.93-35.79,22.98-2.61,3.27-5.16-10.29-8.62-8.71-20.98,9.58-36.65-17.6-57.9-7.19-9.54,4.68-20.07-3.22-30.42-2.63,3.82-10.59-3.34-15.22-10.69-19.84-13.4-8.41-29.17-10.68-43.42-16.85Z"/>
      <path class="cls-4" d="M2887.51,2507.54c22.12-13.35,47.64-17.21,71.7-24.79,96.67-30.44,193.76-59.59,290.71-89.16,2.87-.88,5.93-1.15,8.91-1.7-1.4,22.35-1.39,44.77-6.57,66.83-7.21,30.68-24.75,46.48-54.51,45.55-8.95-.28-18.45-2.35-26.82,3.24-54.03,.02-108.07,.04-162.1,.06-16.89,0-33.77,0-50.66,0-5.15,0-10.3-.01-15.45-.02-4.74-.39-9.48-4.13-14.24-.06-5.05,.03-10.1,.05-15.15,.08-4.51,.01-9.02,.03-13.53,.04-3.84-.13-7.69-.25-11.49-.38,.04,0-.79,.3-.79,.3Z"/>
      <path class="cls-1" d="M3170.93,2507.51c8.38-5.58,17.87-3.52,26.82-3.24,29.76,.94,47.3-14.86,54.51-45.55,5.18-22.06,5.16-44.48,6.57-66.83,28.33-8.7,56.66-17.4,84.98-26.1,2.81,47.03,17.67,96.35-26.81,135.3,7.59,5.29,15.74,1.81,23.04,3.12-12.53,6.17-26.19,5.53-39.4,5.28-37.86-.71-75.69-2.61-113.56,.09-5.31,.38-10.77-1.33-16.16-2.08Z"/>
      <path class="cls-6" d="M3817.21,2502.11c.04-7.27,.08-14.54,.13-21.81,9.73-37.26,12.45-75.67,18.45-113.54,3.77-23.75,7.03-47.58,13.42-71.32,14.97,46.98,29.48,94.11,45.16,140.86,4.9,14.61,5.92,31.1,17.67,42.99,.58,9.29,3.72,19.74-10.24,22.41-14.99,5.01-27.18,16.15-42.94,19.45-8.14-16.38-12.52-17.17-33.88-6.05-2.4-2.65-4.81-5.31-7.21-7.96-.19-1.68-.38-3.35-.57-5.03Z"/>
      <path class="cls-13" d="M2116.44,2502.95c-17.4-.75-34.15-8.34-52.12-4.25-4.96,1.13-13.13,.34-13.21-6.29-.13-11.06-7-25.04,9.16-31.68,6.36,12.72,14.9,9.94,23.98,3.38,14.18,5.33,28.51,10.28,42.46,16.16,6.55,2.76,14.92,6.53,13.85,14.93-1.13,8.85-11.44,4.12-16.71,7.64-2.47,.04-4.94,.08-7.41,.12Z"/>
      <path class="cls-6" d="M2674.81,2507.35c9.83,.53,19.66,1.06,29.48,1.59-14.71,9.72-29.42,9.77-44.11-.04,4.88-.51,9.75-1.03,14.63-1.54Z"/>
      <path class="cls-1" d="M2958.17,2507.57c16.89,0,33.78,0,50.66,0-16.89,3.49-33.78,3.44-50.66,0Z"/>
      <path class="cls-6" d="M2825.5,2508.96c2.93-1.55,5.86-3.1,8.8-4.64,.81-.53,1.68-.95,2.6-1.25,2.02,6.12,8.26,7.8,12.38,11.72-8.53,.55-16.71-.38-23.78-5.83Z"/>
      <path class="cls-6" d="M2767.19,2508.86c9.57,.1,19.13,.2,28.7,.3-9.6,3.31-19.17,3.75-28.7-.3Z"/>
      <path class="cls-1" d="M2928.47,2507.5c4.77-4.06,9.5-.33,14.24,.06-4.76,2.65-9.51,2.6-14.24-.06Z"/>
      <path class="cls-1" d="M2899.79,2507.62c4.51-.01,9.02-.03,13.53-.04-4.5,2.45-9.01,2.98-13.53,.04Z"/>
      <path class="cls-6" d="M3346.77,2517.43c.51,.23,1.23,.33,1.47,.72,.22,.36-.08,1.04-.15,1.57-.8-.36-1.59-.72-2.39-1.08,.35-.4,.71-.81,1.06-1.21Z"/>
      <path class="cls-1" d="M2887.51,2507.54s.84-.3,.79-.3c-1.68,4.77-4.68,.45-6.94,1.03,2.05-.24,4.1-.48,6.15-.72Z"/>
      <path class="cls-1" d="M2645.51,2507.52c1.22,0,2.44,0,3.66,0-1.22,0-2.44,0-3.66,0Z"/>
      <path class="cls-1" d="M2821.86,2507.55c1.24-.02,2.47-.03,3.7-.05-1.24,.01-2.47,.03-3.7,.05Z"/>
      <path class="cls-15" d="M3897.81,2028.19c.9,16.09,14.97,6.77,21.84,11.31-3.22,18.37-3.18,37.18-12.18,54.61-6.15,11.91-17.32,13.76-27.29,17.39-6.34,2.31-9.26-4.26-8.11-10.51,.99-5.36,3.2-10.49,4.23-15.85,.61-3.17,4.2-7.5-.16-9.52-2.2-1.02-6.17,1.77-13.69,4.29,13.77-18.82,34.04-29.42,35.35-51.71Z"/>
      <path class="cls-12" d="M2084.25,2464.11c-9.08,6.56-17.62,9.34-23.98-3.38,.66-6.03,1.32-12.05,1.99-18.08,9.35-1.61,18.7-1.53,28.03,.09-2.9,6.87-8.36,13.02-6.04,21.37Z"/>
      <path class="cls-14" d="M3339.76,2136.97c1.77,16.96-10.34,14.7-20.59,14.7-124.76,.04-249.51,.03-374.27,.03-26.76,0-53.52,0-83.71,0,9.4,5.7,16.11,3.71,22.41,3.72,141.27,.14,282.54,.12,423.81,.13,5.5,0,11.02-.17,16.51,.07,6.47,.28,15.7-1.43,15.78,7.91,.09,10.86-10.01,6.32-15.5,6.33-147.38,.28-294.77,.21-442.15,.24-7.94,0-15.89,.29-23.84,.45-3.99-11.03-3.57-22.39-2.46-33.8,161.33,.07,322.67,.14,484,.22Z"/>
      <path class="cls-14" d="M2855.51,2063.54c152.86,.13,305.71,.16,458.57,.63,8.21,.03,23.19-5.06,23.42,5.95,.29,14.4-15.27,7.63-23.49,7.65-152.86,.51-305.72,.44-458.57,.49,.03-4.91,.06-9.82,.09-14.72Z"/>
      <path class="cls-14" d="M2855.44,2081.98c153.49,.06,306.97,.02,460.46,.49,7.7,.02,22.16-5.87,21.75,7.76-.33,10.91-14.06,6.13-21.72,6.14-153.48,.36-306.97,.35-460.46,.4-.01-4.93-.02-9.87-.03-14.8Z"/>
      <path class="cls-14" d="M2855.49,2100.29c153.48,.06,306.97,.03,460.45,.39,7.66,.02,21.42-4.75,21.71,6.15,.36,13.56-14.11,7.63-21.8,7.66-153.48,.47-306.97,.43-460.45,.48,.03-4.9,.06-9.79,.09-14.69Z"/>
      <path class="cls-14" d="M2855.39,2118.72c154.6,.06,309.2,.13,463.79,.19,10.38,0,22.19-2.03,20.64,14.69-161.37,.08-322.74,.16-484.11,.24-.11-5.04-.22-10.08-.33-15.12Z"/>
      <path class="cls-14" d="M2857.1,2045.62c154.15-.06,308.3-.12,462.45-.15,4.27,0,8.58,.03,12.81,.54,4.04,.49,6.8,2.81,6.38,7.31-.33,3.51-2.78,5.5-6.06,5.75-6.08,.46-12.2,.64-18.31,.65-152.93,.14-305.85,.24-458.78,.34,.5-4.82,1-9.63,1.5-14.45Z"/>
      <path class="cls-1" d="M3259.37,2311.73c-5.07-27.82-15.24-52.99-37.45-71.89,24.32-7.03,49.17-2.13,73.76-3.26,.24,.56,.35,1.47,.74,1.61,22.16,7.85,37.49,23.82,50.62,42.42-28.75,11.72-57.86,22.39-87.66,31.12Z"/>
      <path class="cls-16" d="M2855.72,2133.84c161.37-.08,322.74-.16,484.11-.24,.23,.77,.57,1.52,.66,2.31,.04,.33-.46,.71-.72,1.06-161.33-.07-322.67-.15-484-.22-.4-.96-.42-1.94-.04-2.91Z"/>
      <path class="cls-16" d="M2862.57,2191.32s-.08-1.01-.08-1.01c10.36-.49,20.71-1.39,31.07-1.41,149.98-.21,299.95-.29,449.93-.41,.27,3.83-3.95,2.94-5.31,5.07-1.31-.12-2.62-.24-3.93-.36-4.21-.64-8.42-1.84-12.63-1.83-152.89,.07-305.79,.25-458.68,.42l-.36-.47Z"/>
      <path class="cls-3" d="M2862.94,2191.79c152.89-.17,305.79-.35,458.68-.42,4.21,0,8.42,1.19,12.63,1.83-5.86,4.73-12.86,3.22-19.44,3.22-143.87,.07-287.74,.08-431.61-.15-6.82-.01-14.92,3.22-20.26-4.49Z"/>
      <path class="cls-8" d="M2745.04,2236.21c-14.78,.12-29.56,.25-44.34,.37-6.13-.08-12.26-.16-18.39-.23-101.01,15.13-202.65,3.26-303.92,7.05-10.45,.39-20.67-.6-30.65-3.77-3.5-2.96-7.79-3.03-12.07-3.57-25.05-3.13-40.83-17.15-48.79-40.92-5.49-16.39-8.16-33.46-8.31-50.31-.33-36.54-2-73.08,2.89-109.66,5.78-43.31,26.3-63.2,69.78-63.21,128.99-.04,257.97-.02,388.78,1.21-35.49,18.97-35.71,53.46-38.28,85.44-3.32,41.33-1.76,82.87,3.85,124.14,3.42,25.14,17.24,42.3,39.44,53.46Z"/>
      <path class="cls-15" d="M2772.98,1917.88c81.49-.04,162.97-.08,244.45-.13,21.14,10.05,30.51,26.86,28.75,50.04-101.79-.02-203.59-.03-305.38-.05,1.4-30.55,8.61-41.72,32.18-49.87Z"/>
      <path class="cls-8" d="M2152.85,2278.98c-.72-1.63-1.93-3.22-2.1-4.9-3.25-33.14-2.24-34.26,30.73-34.53,6.69-.06,13.38,0,21.21-1.02-39.7-11.26-48.93-41.72-50.67-76.99-2.44-49.23-4.99-98.46,4.82-147.29,11.13,6.82,22.26,13.64,33.4,20.45-.11,40.69,.29,81.39-.49,122.07-.65,34.07,9.32,62,40.67,79.37,0,0-.06,.06-.06,.06-4.89,1.59-11.42-3.6-14.96,3.61-10.63,6.9-22.5,3.19-33.77,3.53-24.39,.74-26.59,2.32-28.57,26.55-.25,3.02-.15,6.06-.2,9.1Z"/>
      <path class="cls-9" d="M2772.98,1917.88c-23.57,8.15-30.78,19.32-32.18,49.87-13.31,.06-26.61,.12-39.92,.18-3.08-19.86,4.03-35.9,18.45-49.2,17.83-3.41,35.73-2.39,53.64-.85Z"/>
      <path class="cls-9" d="M3046.18,1967.8c1.76-23.19-7.61-39.99-28.75-50.04,14.41-1.88,28.83-1.45,43.26-.31,18.68,11.71,29.37,27.43,25.41,50.5-13.31-.05-26.61-.1-39.91-.15Z"/>
      <path class="cls-8" d="M2343.98,2239.78c-25.66,7.75-51.93,2.36-77.9,3.27-11.81,.41-24.43,3.78-35.68-3.52-.01-1.11-.04-2.23-.06-3.34,0,0,.06-.06,.06-.06,37.65,7.78,75.73,2,113.57,3.65Z"/>
      <path class="cls-10" d="M2884.32,1098.34c-4.97,3.35-7.63-.75-10.99-3.22-101.14-74.47-166.37-173.7-200.71-293.49-14.64-51.08-19.66-103.96-23.04-156.92-.79-12.42,2.66-19.27,16.32-20.78,69.77-7.72,123.64-45.82,173.33-91.68,8.97-8.28,18.37-16.1,27.38-24.34q17.13-15.66,32.77,2.49c.25,4.61,2.68,7.21,7.25,7.83,0,0,0-.06,0-.06-4.19,14.11,7.53,25.18,7.21,38.78-.68,28.4,4.66,56.9,9.32,84.19,5.73,33.62,3.66,66.27,4.21,99.39-.79-1.65-1.66-3.26-2.34-4.95-8.76-21.5-24.47-33.03-44.02-32.26-17.8,.7-34.12,12.84-40.28,29.95-6.88,19.12-1.59,36.81,17.11,51.53,6.65,5.24,8.92,10.69,8.84,18.58-.24,22,.11,44.01-.09,66.02-.09,10.38,3.55,15.79,14.92,15.91,11.49,.12,17.01-3.85,16.79-15.89-.38-21.39-.01-42.79-.06-64.18-.02-7.47,.01-14.44,7.77-19.06,11.72-6.98,17.02-18.78,21.42-31.01,.32,7.31,.23,14.66,1.04,21.92,3.96,35.41-10.31,69.21-8.09,104.84,1.75,28.2-9.92,56.08-7.32,84.92,.2,2.22-1.67,4.55-2.13,6.91-4.03,20.63-9.45,41.14-11.37,61.97-1.2,13.01-2.32,25.51-9.34,36.44-5.33,8.29-6.31,16.92-5.88,26.17Z"/>
      <path class="cls-7" d="M2927.35,740.53c-.55-33.12,1.53-65.77-4.21-99.39-4.65-27.29-9.99-55.79-9.32-84.19,.32-13.61-11.39-24.67-7.21-38.78,25.29,19.85,50.83,39.39,75.79,59.65,29.76,24.15,64.46,36.69,101.45,43.02,28.75,4.92,28.68,3.89,28.81,32.33,.54,115.72-33.85,221.15-98.73,315.79-34.72,50.64-75.04,97.67-129.62,129.4-.43-9.26,.56-17.88,5.88-26.17,7.02-10.93,8.14-23.43,9.34-36.44,1.92-20.83,7.34-41.34,11.37-61.97,.46-2.36,2.33-4.69,2.13-6.91-2.6-28.83,9.07-56.72,7.32-84.92-2.21-35.63,12.05-69.44,8.09-104.84-.81-7.25-.72-14.61-1.04-21.91-.02-4.87-.04-9.76-.06-14.65Z"/>
      <path class="cls-7" d="M2906.63,518.22c-4.57-.62-7-3.22-7.25-7.83,4.02,1.13,6.73,3.47,7.25,7.83Z"/>
      <path class="cls-3" d="M2054.37,1876.07c11.46,13.05,21.94,27.06,36.61,36.94-.08,2.18-.17,4.35-.25,6.53-15.51-12.29-33.78-21.83-41.64-41.72,1.77-.58,3.52-1.16,5.27-1.75Z"/>
      <path class="cls-6" d="M3097.83,1619.25c11.93-36.53,23.73-73.11,35.82-109.58,8.01-24.15,16.36-48.2,24.68-72.25,6.32-18.26,13.04-36.38,19.2-54.7,18.55-55.1,36.95-110.26,55.34-165.41,6.31-18.93,12.54-37.89,18.59-56.9,1.25-3.93,.5-9.32,6.44-9.38,5.17-.05,7,4.09,8.02,8.54,9.32,40.77,26.66,78.92,39.06,118.72,17.28,55.49,37.43,110.08,56.11,165.14,19.84,58.5,39.38,117.09,59.04,175.65-107.43,.06-214.87,.12-322.3,.18Z"/>
      <path class="cls-6" d="M2090.74,1919.54c.08-2.18,.16-4.35,.25-6.53,4.11,.9,8.86,1.18,7.2,7.56-2.81,2.04-5.11,.33-7.45-1.03Z"/>
      <path class="cls-14" d="M3343.49,2188.49c-149.98,.11-299.95,.2-449.93,.41-10.36,.01-20.71,.92-31.07,1.41-2.95-17.85,9.44-16.39,20.67-16.39,109.48,0,218.97-.02,328.45-.02,37.92,0,75.84,.09,113.76-.03,10.24-.03,18.65,1.6,18.11,14.62Z"/>
      <path class="cls-14" d="M2190.05,2455.16s.05-1.25,.05-1.27c4.5-6.84,10.94-8.9,18.89-8.58,9.75,.39,19.52,.06,29.29,.05,146.44-.17,292.88-.35,439.32-.52,.26,1.03,.55,2.06,.87,3.07-.14,5.45,.24,11.03-3.58,15.64,0,0-.65-1.59-.65-1.58-1.08-2.83-3.38-2.83-5.94-2.82-152.54,.23-305.08,.44-457.62,.54-7.11,0-14.85,1.89-20.63-4.54Z"/>
      <path class="cls-14" d="M2677.62,2294.47c.32,1.73,.64,3.45,.96,5.16-.21,3.36-.42,6.73-.63,10.1-161.52-.02-323.04-.03-484.56-.05-3.01-18.87,10.76-15.25,21.07-15.25,154.38-.08,308.77,0,463.15,.03Z"/>
      <path class="cls-14" d="M2190.05,2290.68c.04-3.36,.08-6.73,.11-10.09,156.9-.11,313.8-.2,470.71-.37,8.54,0,16.3,.36,16.53,11.71-147.2-.08-294.41-.13-441.61-.28-15.25-.02-30.49-.63-45.74-.97Z"/>
      <path class="cls-16" d="M2190.05,2290.68c15.25,.34,30.49,.95,45.74,.97,147.2,.15,294.41,.2,441.61,.28,.46,.81,.53,1.66,.22,2.54-154.38-.03-308.77-.11-463.15-.03-10.31,0-24.08-3.62-21.07,15.25,.06,1.23,.11,2.46,.16,3.7-4.47-7.06-2.12-15.18-3.52-22.71Z"/>
      <path class="cls-8" d="M2186.3,2468.12c13.41-.32,26.81-.92,40.22-.91,148.29,.14,296.57,.37,444.86,.57-5.89,4.56-12.84,3.32-19.46,3.32-148.68,.06-297.35,.06-446.03,0-6.64,0-13.55,1.14-19.6-2.99Z"/>
      <path class="cls-6" d="M2677.96,2309.74c.21-3.37,.42-6.74,.63-10.1,.89,.79,1.82,1.49,2.8,2.13,.23,46.61,.46,93.22,.69,139.83-1.2,2.12-2.4,4.23-3.6,6.34-.33-1.02-.62-2.05-.87-3.08,.22-1.03,.26-2.07,.14-3.11,.13-4.9,.26-9.8,.39-14.71,.06-2.55,.11-5.1,.17-7.65v-10.76c.02-2.44,.03-4.88,.03-7.33,0-3.56,.02-7.11,.02-10.67,0-1.68,0-3.36,0-5.04,.03-5.37,.05-10.73,.08-16.1-.02-1.78-.04-3.56-.06-5.35,0-4.48,0-8.95,.01-13.43,0-1.66-.01-3.33-.02-4.99-.04-3.52-.07-7.05-.11-10.57,.02-2.38,.03-4.75,.05-7.13-.05-4.75-.09-9.5-.14-14.25-.07-1.34-.13-2.69-.2-4.03Z"/>
      <path class="cls-8" d="M2682.07,2441.6c-.23-46.61-.45-93.21-.69-139.83,.38,.46,1.06,.89,1.12,1.4,5.55,46.16,6.54,92.31-.43,138.43Z"/>
      <path class="cls-2" d="M2682.32,2236.34c6.13,.08,12.26,.15,18.39,.23-.05,2.21-.11,4.42-.17,6.62-6.74-.52-14.87,2.66-18.22-6.85Z"/>
      <path class="cls-1" d="M2175.16,2507.3c-6.78,.94-13.48,1.27-19.7-2.39,6.75-.75,13.56-1.98,19.7,2.39Z"/>
      <path class="cls-2" d="M2230.35,2236.19c.03,1.11,.05,2.23,.06,3.34-5.01,.09-10.01,.18-15.02,.27,3.53-7.21,10.07-2.02,14.96-3.61Z"/>
      <path class="cls-3" d="M2678.34,2401.29c0,2.44-.02,4.88-.02,7.33-153.56-.05-307.12-.1-460.68-.12-4.27,0-8.58,.06-12.8,.59-3.13,.39-5.93,1.94-5.37,5.88,.42,2.92,2.92,3.82,5.35,4.1,3.63,.42,7.31,.53,10.98,.53,154.17-.06,308.34-.14,462.52-.22-.06,2.55-.11,5.1-.17,7.65-156.04-.06-312.07-.14-468.11-.12-5.46,0-10.93,.93-16.39,1.42-.02-38.31-.04-76.63-.06-114.94-.06-1.23-.11-2.46-.17-3.7,161.52,.02,323.04,.03,484.55,.05,.06,1.34,.13,2.69,.2,4.02-154.17-.09-308.35-.17-462.53-.22-3.66,0-7.34,.16-10.96,.65-3.22,.44-5.8,2.23-6.15,5.74-.44,4.44,2.27,6.9,6.29,7.48,4.21,.6,8.53,.68,12.8,.68,153.56,0,307.13-.04,460.69-.07-.02,2.38-.03,4.75-.05,7.13-154.15-.04-308.3-.11-462.45,.01-5.61,0-14.93-2.82-15.68,4.75-.89,9.07,8.7,6.11,13.96,6.11,154.76,.03,309.52-.15,464.28-.3,0,1.66,.01,3.33,.02,4.99-154.78-.18-309.57-.39-464.35-.4-6.02,0-15.71-2.65-14.97,7.92,.59,8.46,9.3,6.19,14.94,6.19,154.79,0,309.57-.15,464.36-.27,.02,1.78,.04,3.56,.06,5.33-3.04-.27-6.09-.75-9.14-.76-150.59-.05-301.17-.05-451.76-.05-2.45,0-4.91-.02-7.34,.18-5.76,.48-11.69,1.59-11.46,8.93,.23,7.31,6.32,8.25,12.01,8.35,14,.25,28.01,.27,42.01,.27,124.88,.02,249.75-.09,374.63,.12,17.01,.03,33.89-6.12,50.97-.94,0,1.68,0,3.36,.01,5.04-154.81-.1-309.62-.2-464.43-.3-1.84,0-3.68-.05-5.5,.11-3.59,.31-8.34,.1-8.22,5.01,.1,4.3,4.44,5.33,8.2,5.71,3.04,.3,6.11,.36,9.16,.36,153.59-.06,307.17-.14,460.76-.21Z"/>
      <path class="cls-14" d="M2193.63,2428.33c5.46-.49,10.93-1.42,16.39-1.42,156.04-.02,312.08,.06,468.11,.12-.14,4.9-.27,9.8-.39,14.71-75.8-.11-151.61-.25-227.42-.31-78.87-.06-157.73,.01-236.6-.11-8.71-.01-19.62,2.77-20.02-11.77l-.08-1.22Z"/>
      <path class="cls-3" d="M2193.71,2429.55c.4,14.53,11.3,11.75,20.02,11.77,78.87,.12,157.73,.05,236.6,.11,75.81,.06,151.61,.21,227.42,.31,.12,1.04,.07,2.08-.15,3.11-146.44,.17-292.88,.34-439.32,.52-9.76,.01-19.54,.34-29.29-.05-7.94-.32-14.39,1.74-18.89,8.58-.29-8.33-1.75-16.84,3.61-24.35Z"/>
      <path class="cls-3" d="M2190.05,2455.16c5.78,6.44,13.52,4.55,20.63,4.54,152.54-.11,305.08-.31,457.62-.54,2.57,0,4.86-.01,5.94,2.82-6.05,.54-12.09,1.55-18.14,1.55-150.16,.1-300.32,.18-450.48-.28-5.08-.02-17.2,7.24-15.57-8.09Z"/>
      <path class="cls-13" d="M2927.35,740.53c.02,4.89,.04,9.77,.06,14.65-4.41,12.22-9.7,24.02-21.43,31-7.76,4.62-7.79,11.59-7.77,19.06,.05,21.4-.32,42.8,.06,64.18,.22,12.05-5.3,16.01-16.79,15.89-11.36-.12-15.01-5.53-14.92-15.91,.2-22-.15-44.01,.09-66.02,.09-7.89-2.18-13.34-8.84-18.58-18.7-14.72-23.99-32.41-17.11-51.53,6.16-17.11,22.48-29.25,40.28-29.95,19.54-.77,35.26,10.76,44.02,32.26,.69,1.69,1.56,3.3,2.34,4.95Z"/>
      <path class="cls-14" d="M2678.35,2385.59c-17.08-5.19-33.96,.97-50.97,.94-124.88-.21-249.75-.11-374.63-.12-14,0-28.01-.02-42.01-.27-5.69-.1-11.78-1.05-12.01-8.35-.23-7.34,5.7-8.46,11.46-8.93,2.44-.2,4.89-.18,7.34-.18,150.59,0,301.17,0,451.76,.05,3.05,0,6.09,.48,9.14,.76-.03,5.38-.05,10.75-.08,16.11Z"/>
      <path class="cls-14" d="M2678.3,2328.02c-153.56,.03-307.13,.07-460.69,.07-4.27,0-8.58-.08-12.8-.68-4.01-.57-6.72-3.04-6.29-7.48,.35-3.51,2.94-5.3,6.15-5.74,3.62-.49,7.3-.65,10.96-.65,154.18,.05,308.35,.13,462.53,.22,.04,4.76,.09,9.51,.14,14.25Z"/>
      <path class="cls-14" d="M2678.37,2364.14c-154.79,.12-309.57,.27-464.36,.27-5.64,0-14.35,2.27-14.94-6.19-.74-10.56,8.95-7.92,14.97-7.92,154.78,.01,309.57,.22,464.35,.4,0,4.48,0,8.96-.01,13.44Z"/>
      <path class="cls-14" d="M2678.36,2345.72c-154.76,.15-309.52,.34-464.28,.3-5.26,0-14.85,2.96-13.96-6.11,.74-7.57,10.07-4.74,15.68-4.75,154.15-.12,308.3-.05,462.45-.01,.03,3.52,.07,7.05,.11,10.57Z"/>
      <path class="cls-14" d="M2678.3,2419.38c-154.17,.08-308.34,.16-462.52,.22-3.66,0-7.34-.12-10.98-.53-2.42-.28-4.93-1.18-5.35-4.1-.56-3.94,2.24-5.49,5.37-5.88,4.23-.53,8.53-.59,12.8-.59,153.56,.02,307.12,.07,460.68,.12,0,3.59,0,7.17-.01,10.76Z"/>
      <path class="cls-14" d="M2678.34,2401.29c-153.59,.08-307.17,.15-460.76,.21-3.06,0-6.13-.06-9.16-.36-3.76-.38-8.1-1.41-8.2-5.71-.12-4.9,4.63-4.69,8.22-5.01,1.82-.16,3.67-.11,5.5-.11,154.81,.1,309.62,.2,464.43,.3-.01,3.56-.02,7.11-.03,10.67Z"/>
    </g>
  </g>
</svg>